<?xml version="1.0" encoding="UTF-8"?>
<svg version="1.1" xmlns="http://www.w3.org/2000/svg" width="2048" height="2048">
<path d="M0 0 C675.84 0 1351.68 0 2048 0 C2048 675.84 2048 1351.68 2048 2048 C1372.16 2048 696.32 2048 0 2048 C0 1372.16 0 696.32 0 0 Z " fill="#FEFEFE" transform="translate(0,0)"/>
<path d="M0 0 C3.3800974 0.5082553 6.76764666 0.92986777 10.15893555 1.35693359 C17.55206086 2.33723237 24.80342649 3.68555617 32.08081055 5.31005859 C32.72562378 5.45378906 33.37043701 5.59751953 34.03479004 5.74560547 C50.76620492 9.52657866 66.90358196 15.09316703 83.06188965 20.79248047 C85.5289196 21.6580704 88.00417129 22.49904928 90.47924805 23.34130859 C129.37294087 36.82391721 166.61317857 58.72493171 197.89331055 85.43505859 C198.44519043 85.8981543 198.99707031 86.36125 199.56567383 86.83837891 C212.19769094 97.4387209 224.34690288 108.72399446 234.89331055 121.43505859 C235.58811523 122.24072266 236.28291992 123.04638672 236.9987793 123.87646484 C249.18686603 138.17211632 260.37054328 153.2364232 269.89331055 169.43505859 C270.59834717 170.61938477 270.59834717 170.61938477 271.31762695 171.82763672 C281.70730379 189.3295964 290.79322525 207.09822532 297.20776367 226.43945312 C298.11084717 229.06830089 299.12030162 231.64949122 300.13452148 234.23706055 C305.93392169 249.12554646 309.85095141 264.42681184 313.08081055 280.06005859 C313.31864258 281.18234863 313.55647461 282.30463867 313.80151367 283.4609375 C318.77786779 308.53437437 319.40264264 333.59895039 319.56286621 359.05615234 C319.5932521 363.40195434 319.63957321 367.74758814 319.68432617 372.09326172 C319.76908287 380.5404424 319.83697605 388.98764061 319.89331055 397.43505859 C320.52164795 396.27997803 321.14998535 395.12489746 321.79736328 393.93481445 C326.85178647 384.70217079 332.05518252 375.72048499 337.95581055 366.99755859 C338.5984082 366.02625 339.24100586 365.05494141 339.90307617 364.05419922 C344.5171354 357.17213476 349.56345372 350.77379701 354.89331055 344.43505859 C355.83957451 343.27958713 356.78504945 342.12346839 357.72924805 340.96630859 C369.47296286 326.94611983 382.33681594 313.55014992 396.89331055 302.43505859 C398.00073502 301.55208925 399.10607428 300.66650056 400.2097168 299.77880859 C418.62116617 285.01748713 438.49933414 272.42217802 459.89331055 262.43505859 C460.68769531 262.06251953 461.48208008 261.68998047 462.30053711 261.30615234 C472.63208772 256.48820723 482.97677834 251.77874826 493.89331055 248.43505859 C494.7337793 248.17515137 495.57424805 247.91524414 496.44018555 247.64746094 C510.26534887 243.45837916 524.16655323 240.46045415 538.39331055 238.06005859 C539.1326886 237.93277374 539.87206665 237.80548889 540.6338501 237.67434692 C558.14069624 234.69359356 575.54970844 234.24823621 593.28100586 234.24975586 C596.15452492 234.24754998 599.02767031 234.22924431 601.90112305 234.21044922 C631.05258298 234.12054084 631.05258298 234.12054084 637.89331055 240.43505859 C642.22773154 244.89622237 643.5187932 247.20067437 643.49267578 253.62353516 C643.49858986 254.66412582 643.49858986 254.66412582 643.50462341 255.72573853 C643.51131035 258.00979973 643.48218867 260.29183715 643.4519043 262.57568359 C643.44764532 264.18308121 643.44532463 265.790485 643.44483948 267.39788818 C643.43867832 270.77058769 643.41602658 274.14262209 643.38037109 277.51513672 C643.33553707 281.78434311 643.32036676 286.0529409 643.31663418 290.32236099 C643.31214286 293.64810923 643.29672485 296.97373627 643.27775764 300.29943085 C643.26902438 301.86988094 643.26222472 303.44034329 643.25759697 305.01081085 C642.92804363 383.75295828 609.46124893 455.8605558 555.89331055 512.43505859 C555.18432617 513.18658203 554.4753418 513.93810547 553.74487305 514.71240234 C549.37183798 519.21930583 544.66810006 523.19187539 539.7644043 527.11083984 C537.93446793 528.5922169 536.13121715 530.10763252 534.3659668 531.66552734 C499.72412849 562.03436357 454.69597742 581.2791771 409.89331055 590.43505859 C409.00337402 590.61907227 408.1134375 590.80308594 407.1965332 590.99267578 C404.43209284 591.55468548 401.66430134 592.09384535 398.89331055 592.62255859 C398.10077881 592.77764893 397.30824707 592.93273926 396.49169922 593.0925293 C378.45520096 596.35943032 360.35510067 596.70712228 342.08081055 596.56005859 C334.75893555 596.51880859 327.43706055 596.47755859 319.89331055 596.43505859 C319.89331055 623.82505859 319.89331055 651.21505859 319.89331055 679.43505859 C326.88462158 679.40887451 333.87593262 679.38269043 341.07910156 679.35571289 C363.45340657 679.27544842 385.8277304 679.21984005 408.20213995 679.17973195 C411.6780546 679.17347848 415.15396881 679.16700686 418.62988281 679.16040039 C419.32186927 679.15908884 420.01385572 679.15777729 420.72681146 679.15642599 C431.92864104 679.13467455 443.13034221 679.09525452 454.33209563 679.04929461 C465.82774459 679.00252255 477.32330324 678.97513586 488.81904548 678.96461612 C495.27540715 678.95809387 501.73147764 678.94274919 508.18774605 678.90640831 C514.26407984 678.87248294 520.34000238 678.8619989 526.41642189 678.86952019 C528.6468962 678.86814412 530.8773842 678.85819145 533.10777664 678.83903122 C536.15366033 678.81414795 539.19799203 678.82013694 542.24391174 678.83378601 C543.56737691 678.8119397 543.56737691 678.8119397 544.91757876 678.78965205 C551.14069783 678.86501244 554.18104119 680.34932937 558.89331055 684.43505859 C562.97969156 689.66629482 562.62792009 695.06844257 561.89331055 701.43505859 C560.89172341 704.97525967 559.32645957 707.46249328 556.19873083 709.58503633 C551.11648364 712.23412002 547.06458849 713.01109352 541.37246704 712.94680309 C540.13645677 712.95687192 540.13645677 712.95687192 538.8754766 712.96714416 C536.12023726 712.98471976 533.36585928 712.97392295 530.6105957 712.96318054 C528.61298303 712.9699394 526.61537559 712.97843072 524.61777687 712.98850375 C519.13286132 713.01102733 513.64819829 713.00856839 508.16325092 713.00193441 C502.24631264 712.99906122 496.32944511 713.01910882 490.41253662 713.03608704 C478.82303581 713.06545246 467.23361609 713.07276812 455.64408255 713.07151153 C446.22594718 713.07059781 436.80783867 713.0764768 427.38970947 713.08713722 C426.03629419 713.08863549 424.6828789 713.09012953 423.3294636 713.09161935 C422.65763034 713.09235917 421.98579708 713.093099 421.29360523 713.09386124 C420.62054044 713.09460166 419.94747566 713.09534207 419.25401497 713.09610492 C418.24272221 713.09722248 418.24272221 713.09722248 417.21099929 713.09836262 C398.25182196 713.11909622 379.29265436 713.13133008 360.33346558 713.12626934 C359.61889109 713.12608181 358.90431659 713.12589427 358.16808833 713.12570106 C354.54638878 713.12472907 350.92468925 713.12368521 347.30298972 713.12261834 C346.58371522 713.12240736 345.86444072 713.12219638 345.12337002 713.12197901 C343.66882351 713.12155148 342.214277 713.12111936 340.75973049 713.12068264 C318.12123354 713.11409814 295.48293198 713.13705702 272.84448242 713.18286133 C247.40716706 713.2342917 221.96997682 713.26223824 196.53260612 713.2563594 C193.82070797 713.25581479 191.1088098 713.25535583 188.39691162 713.25495338 C187.72917818 713.25483934 187.06144473 713.2547253 186.37347694 713.25460781 C176.2920772 713.25338394 166.21081667 713.27067291 156.12945557 713.29743004 C144.66588623 713.32750746 133.20262246 713.33335341 121.73903704 713.30762102 C115.88881326 713.29517512 110.03916432 713.29407243 104.18898773 713.32332993 C98.83463797 713.34981818 93.48133199 713.34406656 88.12701869 713.31249998 C86.18903712 713.30675809 84.2509771 713.31286821 82.31308103 713.33195599 C66.02013845 713.48160969 66.02013845 713.48160969 60.78189087 709.02529621 C56.2548726 703.97321602 55.42793367 699.55246774 55.5769043 692.86865234 C56.2146354 687.9636341 58.93925765 685.27553377 62.51831055 682.12255859 C66.82639934 679.06154814 70.3089829 679.29711648 75.44790649 679.31480408 C76.34391331 679.31394965 77.23992013 679.31309523 78.16307867 679.31221491 C81.18336472 679.31055997 84.20359596 679.31608173 87.22387695 679.3215332 C89.38177998 679.3218151 91.53968309 679.3216573 93.69758606 679.3210907 C99.57125559 679.32080281 105.44490486 679.32669812 111.31856966 679.33366466 C117.45117879 679.33989966 123.58378834 679.34050211 129.71640015 679.34169006 C141.33631691 679.34480294 152.95622431 679.35301575 164.57613695 679.36303955 C177.80204895 679.37420203 191.02796139 679.37971148 204.25387692 679.38473499 C231.46702786 679.3951984 258.68016595 679.41354335 285.89331055 679.43505859 C285.89331055 650.72505859 285.89331055 622.01505859 285.89331055 592.43505859 C283.25331055 592.43505859 280.61331055 592.43505859 277.89331055 592.43505859 C275.5580868 592.13977404 273.22987507 591.78316377 270.9128418 591.36865234 C269.9495118 591.19773323 269.9495118 591.19773323 268.96672058 591.02336121 C266.87798693 590.64880062 264.79180654 590.26206115 262.70581055 589.87255859 C261.98288818 589.73912048 261.25996582 589.60568237 260.51513672 589.46820068 C196.70183614 577.63841191 135.28644738 554.23126519 84.89331055 512.43505859 C84.35303223 511.99097656 83.81275391 511.54689453 83.25610352 511.08935547 C67.24238371 497.89879515 51.11741174 483.75889277 38.2644043 467.41552734 C36.5035354 465.20211224 34.71818785 463.05743308 32.8659668 460.92333984 C-3.16342793 419.04720839 -27.1354161 367.41780955 -38.33389282 313.58297729 C-38.6298254 312.16186132 -38.92931675 310.74147928 -39.23324585 309.322052 C-44.23306171 285.76119265 -45.56011513 261.79396184 -45.54248047 237.76977539 C-45.55149235 235.25633812 -45.56170822 232.74290493 -45.57301331 230.22947693 C-45.59643975 224.19949161 -45.60615786 218.16964387 -45.60785044 212.13962581 C-45.60929149 207.23858241 -45.61553157 202.33756737 -45.62495232 197.43653297 C-45.65122397 183.48197291 -45.66522853 169.52748102 -45.66296089 155.57289603 C-45.66284103 154.82672364 -45.66272116 154.08055125 -45.66259766 153.31176758 C-45.66247501 152.56466822 -45.66235237 151.81756887 -45.66222601 151.04783014 C-45.66100057 138.87849049 -45.68989904 126.70942648 -45.73201276 114.54016676 C-45.77510808 101.98701262 -45.79582456 89.43399333 -45.79323143 76.88076335 C-45.79223787 69.85527682 -45.80038138 62.83008205 -45.83276558 55.8046627 C-45.86293657 49.21902067 -45.86207301 42.63389108 -45.84021568 36.04818153 C-45.83707643 33.63428469 -45.84417726 31.22034943 -45.86229706 28.80651855 C-45.88543929 25.51051673 -45.87154239 22.21665549 -45.84840393 18.92070007 C-45.86383462 17.96770151 -45.87926531 17.01470295 -45.8951636 16.03282565 C-45.78985705 9.24111523 -43.82496723 5.30786162 -39.10668945 0.43505859 C-29.71969869 -7.17682815 -10.98487595 -1.75782744 0 0 Z " fill="#926245" transform="translate(724.106689453125,669.56494140625)"/>
<path d="M0 0 C3.53522 0.47190211 7.06989642 0.94776305 10.60449219 1.42431641 C12.09890335 1.62372581 12.09890335 1.62372581 13.62350464 1.8271637 C20.24360394 2.7222675 26.75614313 3.7907308 33.25 5.375 C34.14348145 5.58487549 35.03696289 5.79475098 35.95751953 6.01098633 C44.05107693 7.94215879 52.05934783 10.1603772 60.05395508 12.46240234 C61.94226377 12.98405028 63.84822794 13.4404206 65.75390625 13.89453125 C105.02920947 23.60330199 143.01350621 43.53094772 175 68 C175.59651367 68.4522998 176.19302734 68.90459961 176.80761719 69.37060547 C184.31506899 75.07716017 191.4387546 81.057022 198.3203125 87.50390625 C200.5911045 89.61911921 202.89529043 91.66721416 205.25 93.6875 C212.0481061 99.61656986 217.96232687 106.00121529 223.59765625 113.04296875 C225.64283257 115.56036464 227.74883053 118.00464403 229.88989258 120.44018555 C264.82974623 160.51032106 284.79841076 211.78450562 294.1875 263.5 C294.34234863 264.32725586 294.49719727 265.15451172 294.65673828 266.00683594 C297.85504498 284.44495225 298.28723194 303.01730552 298.1953125 321.6796875 C298.19156947 323.95752842 298.18872862 326.23537098 298.18673706 328.51321411 C298.17920197 334.42802598 298.15964407 340.34273523 298.1373291 346.25750732 C298.1166489 352.32530327 298.10768857 358.39311626 298.09765625 364.4609375 C298.07638569 376.30733606 298.04237665 388.15365941 298 400 C295.56113119 397.65388301 294.11021226 395.56721909 292.609375 392.51953125 C292.15481934 391.61460937 291.70026367 390.7096875 291.23193359 389.77734375 C290.74289551 388.79894531 290.25385742 387.82054687 289.75 386.8125 C283.23780081 374.05919037 275.78827681 362.00627754 268 350 C267.51225098 349.24686523 267.02450195 348.49373047 266.52197266 347.71777344 C255.79536343 331.22906473 244.00393329 315.57334365 232 300 C231.46665039 299.30777344 230.93330078 298.61554688 230.38378906 297.90234375 C225.05134577 291.00028426 219.58210008 284.24199884 213.9128418 277.61352539 C211.20203977 274.44112417 208.57257834 271.22264587 206 267.9375 C202.57863681 263.61356861 198.89767449 259.56773873 195.14111328 255.53759766 C192.07754087 252.23224799 189.1927347 248.833439 186.375 245.3125 C182.86694806 240.95249259 179.12306186 237.01519694 175.1171875 233.11328125 C173.14350902 231.14324424 171.31272114 229.11762585 169.5 227 C166.31995344 223.28994568 162.91238198 219.87022133 159.40625 216.46875 C157.44891562 214.46057576 155.62057764 212.42388201 153.79370117 210.30029297 C150.29957282 206.29479693 146.64865826 202.48756594 142.89453125 198.7265625 C142.24804123 198.07674408 141.60155121 197.42692566 140.93547058 196.75741577 C139.58303877 195.39996651 138.22929145 194.04382669 136.87426758 192.68896484 C134.801957 190.61444577 132.73780595 188.53202447 130.67382812 186.44921875 C129.35205171 185.1245117 128.02980284 183.80027583 126.70703125 182.4765625 C126.09342239 181.85576813 125.47981354 181.23497375 124.84761047 180.59536743 C124.26988388 180.02071747 123.69215729 179.4460675 123.09692383 178.85400391 C122.59397293 178.34962799 122.09102203 177.84525208 121.5728302 177.32559204 C117.03308481 173.49946361 112.65429783 173.57878871 106.91796875 173.68359375 C102.97938917 174.11066864 100.86218084 175.28459766 98 178 C95.33302535 181.73120012 94.56838619 184.36393007 94.5625 188.9375 C94.53349609 190.43603516 94.53349609 190.43603516 94.50390625 191.96484375 C95.75350422 199.6100219 102.62629624 204.87164352 107.89453125 210.0546875 C108.76011154 210.91506622 109.62569183 211.77544495 110.51750183 212.66189575 C113.27777458 215.40441081 116.04464236 218.14014179 118.8125 220.875 C121.56879441 223.60355053 124.32356918 226.33359146 127.07536316 229.06668091 C128.78439219 230.76359099 130.49608652 232.45782248 132.21089172 234.14889526 C136.47206582 238.37472558 140.57372283 242.66833217 144.47502136 247.22976685 C147.06265803 250.23355989 149.78844539 253.10843875 152.5 256 C156.51699834 260.3044156 160.49133356 264.6297244 164.3359375 269.08984375 C166.31540126 271.36204511 168.3458317 273.58459872 170.375 275.8125 C174.2704657 280.12909713 177.96858218 284.5740113 181.625 289.09375 C183.71671446 291.65334796 185.84137346 294.17668947 187.98852539 296.68945312 C198.53709546 309.03791127 208.34547804 321.94587 218 335 C218.51288574 335.6904541 219.02577148 336.3809082 219.55419922 337.09228516 C257.3813389 388.14536773 287.70289168 444.07041323 296.67138672 507.69482422 C296.94956501 509.64620564 297.26908146 511.59162564 297.59765625 513.53515625 C298.1203272 518.03621578 298.08194923 522.47458132 298 527 C231.8299715 518.5219651 166.50577167 495.47667957 115 452 C114.06800781 451.25105469 113.13601563 450.50210937 112.17578125 449.73046875 C94.89779565 435.62927336 77.96024842 419.16688735 65 401 C64.14024949 399.86450551 63.27682871 398.73178262 62.41015625 397.6015625 C44.85567786 374.52742601 30.33857357 349.09951373 20 322 C19.65984863 321.10845215 19.31969727 320.2169043 18.96923828 319.29833984 C13.75247719 305.41824383 9.91561603 291.52876126 7 277 C6.71238528 275.62496952 6.42463632 274.2499671 6.13671875 272.875 C4.58764411 265.12168281 3.42946163 257.33396923 2.375 249.5 C2.1901001 248.14853882 2.1901001 248.14853882 2.00146484 246.76977539 C-0.01391337 231.13595976 -0.14225587 215.53886284 -0.11352539 199.8046875 C-0.11324272 197.61516318 -0.11340281 195.42563877 -0.1139679 193.2361145 C-0.11425276 187.34054734 -0.1084066 181.44500086 -0.10139394 175.54943848 C-0.09510833 169.37019966 -0.0945525 163.19096027 -0.09336853 157.01171875 C-0.09027049 145.33206105 -0.08207782 133.6524128 -0.07201904 121.97275925 C-0.0608103 108.66671712 -0.05533549 95.36067595 -0.05032361 82.05463028 C-0.03989382 54.70308163 -0.02232416 27.35154135 0 0 Z " fill="#AFCB91" transform="translate(712,702)"/>
<path d="M0 0 C0.58026494 35.40211305 -0.50457543 70.86248125 -11 105 C-11.28439941 105.93875977 -11.56879883 106.87751953 -11.86181641 107.84472656 C-27.33926293 158.30416218 -56.42691833 205.78893403 -99 238 C-100.1971523 238.93681326 -101.39372491 239.87436758 -102.58984375 240.8125 C-112.27458913 248.32905498 -122.3470645 254.93928108 -133 261 C-133.85948242 261.49000488 -134.71896484 261.98000977 -135.60449219 262.48486328 C-174.17302627 284.18227911 -216.80459915 294.22205078 -260.85668945 294.13037109 C-263.95463865 294.12497012 -267.0524456 294.13036399 -270.15039062 294.13671875 C-272.13020865 294.13605863 -274.11002659 294.13477883 -276.08984375 294.1328125 C-277.47114723 294.13584885 -277.47114723 294.13584885 -278.88035583 294.13894653 C-283.047421 294.1237053 -286.93806658 294.0620192 -291 293 C-291.07748808 286.28214103 -291.12918604 279.5644013 -291.16479492 272.84619141 C-291.17967429 270.57140804 -291.19998415 268.29665225 -291.22631836 266.02197266 C-291.3985 250.74169604 -290.6280064 236.06427599 -288 221 C-287.78077881 219.74316406 -287.56155762 218.48632812 -287.33569336 217.19140625 C-281.13688425 184.47991028 -269.3861536 152.86896109 -251 125 C-250.58041016 124.35562988 -250.16082031 123.71125977 -249.72851562 123.04736328 C-241.50636047 110.48907156 -232.13121265 99.32918054 -222.0234375 88.24609375 C-220.25550097 86.28361594 -218.56509473 84.27897159 -216.875 82.25 C-195.11479156 57.37401113 -165.64575274 38.08208198 -136 24 C-135.32163086 23.6714502 -134.64326172 23.34290039 -133.94433594 23.00439453 C-115.65380655 14.1944992 -95.94681694 7.79627689 -76 4 C-74.67838867 3.72929688 -74.67838867 3.72929688 -73.33007812 3.453125 C-49.10518052 -1.36256989 -24.57579255 -0.39374575 0 0 Z " fill="#E1E8E1" transform="translate(1335,938)"/>
<path d="M0 0 C3.3800974 0.5082553 6.76764666 0.92986777 10.15893555 1.35693359 C17.55206086 2.33723237 24.80342649 3.68555617 32.08081055 5.31005859 C32.72562378 5.45378906 33.37043701 5.59751953 34.03479004 5.74560547 C50.76620492 9.52657866 66.90358196 15.09316703 83.06188965 20.79248047 C85.5289196 21.6580704 88.00417129 22.49904928 90.47924805 23.34130859 C129.37294087 36.82391721 166.61317857 58.72493171 197.89331055 85.43505859 C198.44519043 85.8981543 198.99707031 86.36125 199.56567383 86.83837891 C212.19769094 97.4387209 224.34690288 108.72399446 234.89331055 121.43505859 C235.58811523 122.24072266 236.28291992 123.04638672 236.9987793 123.87646484 C249.18686603 138.17211632 260.37054328 153.2364232 269.89331055 169.43505859 C270.59834717 170.61938477 270.59834717 170.61938477 271.31762695 171.82763672 C281.70730379 189.3295964 290.79322525 207.09822532 297.20776367 226.43945312 C298.11084717 229.06830089 299.12030162 231.64949122 300.13452148 234.23706055 C305.93392169 249.12554646 309.85095141 264.42681184 313.08081055 280.06005859 C313.31864258 281.18234863 313.55647461 282.30463867 313.80151367 283.4609375 C318.62608073 307.76959294 319.5147042 332.23293814 319.8215332 356.93041992 C319.87699362 361.3071451 319.96853302 365.68236534 320.06825256 370.05827618 C320.14064179 373.47512728 320.18975265 376.89202548 320.23233032 380.30936623 C320.25605101 381.92451921 320.2879067 383.53957613 320.32846069 385.15439415 C320.53633232 393.82048301 320.64390429 400.45488228 314.89331055 407.43505859 C312.17615184 413.17128254 310.40731539 418.90786812 309.14331055 425.12255859 C308.26111466 428.81497525 306.68654557 431.84668175 304.89331055 435.18505859 C302.12291697 440.47644292 300.92997528 445.22787033 300.2175293 451.13427734 C299.89331055 453.43505859 299.89331055 453.43505859 298.89331055 454.43505859 C297.2271394 454.47569691 295.5594296 454.4777796 293.89331055 454.43505859 C293.66256836 453.86658203 293.43182617 453.29810547 293.1940918 452.71240234 C292.86795898 451.94025391 292.54182617 451.16810547 292.20581055 450.37255859 C291.89256836 449.61845703 291.57932617 448.86435547 291.2565918 448.08740234 C289.91294732 445.22852311 289.91294732 445.22852311 287.34060669 442.41555786 C284.04704877 437.81851312 284.24182828 433.5903414 284.37329102 428.09472656 C284.37942413 426.56835823 284.37942413 426.56835823 284.38568115 425.01115417 C284.40443528 421.649248 284.45801424 418.28877981 284.51049805 414.92724609 C284.52747684 412.56293459 284.54176333 410.19860238 284.55349731 407.83425903 C284.58959144 401.59469924 284.65295792 395.35575577 284.72485352 389.11651611 C284.85139225 378.0328253 284.94882274 366.94898876 285.01049805 355.86474609 C285.01725933 354.68280355 285.02402061 353.50086102 285.03098679 352.28310204 C285.14788302 325.99333691 282.73321016 301.11910536 276.89331055 275.43505859 C276.7001123 274.56091309 276.50691406 273.68676758 276.30786133 272.78613281 C266.0233283 226.66075516 243.25649159 184.39145719 212.89331055 148.43505859 C212.43311523 147.88462891 211.97291992 147.33419922 211.4987793 146.76708984 C202.66034764 136.20294857 193.41171168 126.36088491 182.89331055 117.43505859 C181.99612305 116.64873047 181.09893555 115.86240234 180.17456055 115.05224609 C145.96829639 85.26810562 106.35926181 65.12641233 63.71386719 50.43725586 C61.86913426 49.78178726 60.03667936 49.09038739 58.22045898 48.35961914 C54.58233828 46.91421806 50.80270063 46.10292821 47.00439453 45.18115234 C46.26906494 45.00197266 45.53373535 44.82279297 44.77612305 44.63818359 C43.99527344 44.44804688 43.21442383 44.25791016 42.40991211 44.06201172 C39.72800972 43.39387771 37.05692868 42.69073715 34.38549805 41.98193359 C20.73378019 38.39926899 7.1228741 35.79464769 -6.85205078 33.82055664 C-9.10668945 33.43505859 -9.10668945 33.43505859 -12.10668945 32.43505859 C-12.02251788 60.96581201 -11.92728638 89.49651039 -11.81916237 118.02718353 C-11.76920318 131.27673711 -11.72275944 144.52628502 -11.68481445 157.77587891 C-11.65170304 169.33449139 -11.61176863 180.89305755 -11.5638994 192.45161867 C-11.53882321 198.56242419 -11.51698803 204.67319973 -11.50334549 210.78404236 C-11.49035144 216.55586677 -11.46811759 222.32758736 -11.43930626 228.09935379 C-11.43036394 230.19848622 -11.42457226 232.2976353 -11.42247581 234.39678574 C-11.39987242 253.62110143 -10.34053392 272.8171842 -7.23168945 291.81005859 C-7.06096924 292.88457275 -6.89024902 293.95908691 -6.71435547 295.06616211 C0.34148801 338.33446727 16.26757723 379.11597392 40.89331055 415.43505859 C41.34963867 416.10923828 41.8059668 416.78341797 42.27612305 417.47802734 C48.55897323 426.70071385 55.12775766 435.50624325 62.51977539 443.87280273 C63.48748425 444.97347266 64.44527415 446.08290277 65.39575195 447.19848633 C70.09962677 452.68402013 75.10745886 457.83538508 80.21655273 462.94360352 C81.63251002 464.36174143 83.04029344 465.78802524 84.44799805 467.21435547 C90.61589881 473.39514182 97.03937945 479.02934596 103.89331055 484.43505859 C104.9533991 485.29289341 106.01333634 486.15091532 107.07299805 487.00927734 C144.58021641 516.41711087 187.75218438 536.87196204 233.89331055 548.43505859 C235.37782715 548.81573486 235.37782715 548.81573486 236.89233398 549.20410156 C251.41096373 552.91758216 265.9245773 555.83420331 280.74633789 558.04956055 C282.89331055 558.43505859 282.89331055 558.43505859 285.89331055 559.43505859 C285.89331055 570.32505859 285.89331055 581.21505859 285.89331055 592.43505859 C280.39389353 592.43505859 276.1683492 592.3088494 270.9128418 591.36865234 C269.9495118 591.19773323 269.9495118 591.19773323 268.96672058 591.02336121 C266.87798693 590.64880062 264.79180654 590.26206115 262.70581055 589.87255859 C261.98288818 589.73912048 261.25996582 589.60568237 260.51513672 589.46820068 C196.70183614 577.63841191 135.28644738 554.23126519 84.89331055 512.43505859 C84.35303223 511.99097656 83.81275391 511.54689453 83.25610352 511.08935547 C67.24238371 497.89879515 51.11741174 483.75889277 38.2644043 467.41552734 C36.5035354 465.20211224 34.71818785 463.05743308 32.8659668 460.92333984 C-3.16342793 419.04720839 -27.1354161 367.41780955 -38.33389282 313.58297729 C-38.6298254 312.16186132 -38.92931675 310.74147928 -39.23324585 309.322052 C-44.23306171 285.76119265 -45.56011513 261.79396184 -45.54248047 237.76977539 C-45.55149235 235.25633812 -45.56170822 232.74290493 -45.57301331 230.22947693 C-45.59643975 224.19949161 -45.60615786 218.16964387 -45.60785044 212.13962581 C-45.60929149 207.23858241 -45.61553157 202.33756737 -45.62495232 197.43653297 C-45.65122397 183.48197291 -45.66522853 169.52748102 -45.66296089 155.57289603 C-45.66284103 154.82672364 -45.66272116 154.08055125 -45.66259766 153.31176758 C-45.66247501 152.56466822 -45.66235237 151.81756887 -45.66222601 151.04783014 C-45.66100057 138.87849049 -45.68989904 126.70942648 -45.73201276 114.54016676 C-45.77510808 101.98701262 -45.79582456 89.43399333 -45.79323143 76.88076335 C-45.79223787 69.85527682 -45.80038138 62.83008205 -45.83276558 55.8046627 C-45.86293657 49.21902067 -45.86207301 42.63389108 -45.84021568 36.04818153 C-45.83707643 33.63428469 -45.84417726 31.22034943 -45.86229706 28.80651855 C-45.88543929 25.51051673 -45.87154239 22.21665549 -45.84840393 18.92070007 C-45.86383462 17.96770151 -45.87926531 17.01470295 -45.8951636 16.03282565 C-45.78985705 9.24111523 -43.82496723 5.30786162 -39.10668945 0.43505859 C-29.71969869 -7.17682815 -10.98487595 -1.75782744 0 0 Z " fill="#618D4E" transform="translate(724.106689453125,669.56494140625)"/>
<path d="M0 0 C0.58026494 35.40211305 -0.50457543 70.86248125 -11 105 C-11.28439941 105.93875977 -11.56879883 106.87751953 -11.86181641 107.84472656 C-27.33926293 158.30416218 -56.42691833 205.78893403 -99 238 C-100.1971523 238.93681326 -101.39372491 239.87436758 -102.58984375 240.8125 C-112.27458913 248.32905498 -122.3470645 254.93928108 -133 261 C-133.85948242 261.49000488 -134.71896484 261.98000977 -135.60449219 262.48486328 C-174.17302627 284.18227911 -216.80459915 294.22205078 -260.85668945 294.13037109 C-263.95463865 294.12497012 -267.0524456 294.13036399 -270.15039062 294.13671875 C-272.13020865 294.13605863 -274.11002659 294.13477883 -276.08984375 294.1328125 C-277.47114723 294.13584885 -277.47114723 294.13584885 -278.88035583 294.13894653 C-283.047421 294.1237053 -286.93806658 294.0620192 -291 293 C-291.07748808 286.28214103 -291.12918604 279.5644013 -291.16479492 272.84619141 C-291.17967429 270.57140804 -291.19998415 268.29665225 -291.22631836 266.02197266 C-291.3985 250.74169604 -290.6280064 236.06427599 -288 221 C-287.78077881 219.74316406 -287.56155762 218.48632812 -287.33569336 217.19140625 C-281.13688425 184.47991028 -269.3861536 152.86896109 -251 125 C-250.58041016 124.35562988 -250.16082031 123.71125977 -249.72851562 123.04736328 C-241.50636047 110.48907156 -232.13121265 99.32918054 -222.0234375 88.24609375 C-220.25550097 86.28361594 -218.56509473 84.27897159 -216.875 82.25 C-195.11479156 57.37401113 -165.64575274 38.08208198 -136 24 C-135.32163086 23.6714502 -134.64326172 23.34290039 -133.94433594 23.00439453 C-115.65380655 14.1944992 -95.94681694 7.79627689 -76 4 C-74.67838867 3.72929688 -74.67838867 3.72929688 -73.33007812 3.453125 C-49.10518052 -1.36256989 -24.57579255 -0.39374575 0 0 Z M-98 38 C-98.98145996 38.19287598 -99.96291992 38.38575195 -100.97412109 38.58447266 C-140.16392238 46.37598936 -173.23519754 64.51445267 -203 91 C-203.72832031 91.64195313 -204.45664063 92.28390625 -205.20703125 92.9453125 C-215.9864335 103.06660388 -224.76655643 116.18519565 -232 129 C-232.36577148 129.64404785 -232.73154297 130.2880957 -233.10839844 130.95166016 C-243.89995029 150.10598627 -249.80235753 169.91973669 -254.25 191.375 C-254.41322754 192.14618164 -254.57645508 192.91736328 -254.74462891 193.71191406 C-257.6945201 208.58388948 -257.12122073 223.72791896 -257.0625 238.8125 C-257.05747512 241.06575421 -257.05291396 243.31900951 -257.04882812 245.57226562 C-257.03790047 251.04820106 -257.02124068 256.52409536 -257 262 C-225.8801262 262.48970432 -225.8801262 262.48970432 -195 259 C-194.17628906 258.86078125 -193.35257813 258.7215625 -192.50390625 258.578125 C-156.16813294 252.29930337 -119.92203022 235.37404798 -93.47119141 209.44042969 C-91.91507474 207.91685047 -90.33884407 206.41586383 -88.76171875 204.9140625 C-76.09006659 192.70834843 -66.43581465 179.41717849 -58 164 C-57.42378906 162.94941406 -56.84757812 161.89882812 -56.25390625 160.81640625 C-52.6984519 154.01025078 -49.993881 146.97190664 -47.39453125 139.76171875 C-46.51316138 137.31810445 -45.55686887 135.01780213 -44.484375 132.640625 C-42.66919296 128.18865221 -41.52721281 123.73697448 -40.4375 119.0625 C-40.11217285 117.67587158 -40.11217285 117.67587158 -39.78027344 116.26123047 C-37.94943405 108.21692783 -36.67254717 100.22416718 -36 92 C-35.91242432 90.99606201 -35.82484863 89.99212402 -35.73461914 88.95776367 C-34.85412054 77.65532119 -34.8862703 66.39199597 -34.9375 55.0625 C-34.94252924 53.10742303 -34.94708961 51.1523448 -34.95117188 49.19726562 C-34.96205496 44.46481182 -34.97923957 39.73242036 -35 35 C-66.65846989 34.24184922 -66.65846989 34.24184922 -98 38 Z " fill="#FDFCFA" transform="translate(1335,938)"/>
<path d="M0 0 C2.32791057 1.51498942 4.41661813 3.13602973 6.52734375 4.94140625 C7.31238281 5.60269531 8.09742188 6.26398437 8.90625 6.9453125 C12.94345635 10.45043235 16.79855472 14.10903975 20.52734375 17.94140625 C21.45546875 18.82828125 22.38359375 19.71515625 23.33984375 20.62890625 C25.52734375 22.94140625 25.52734375 22.94140625 25.52734375 24.94140625 C26.07777344 25.15539062 26.62820313 25.369375 27.1953125 25.58984375 C30.32064741 27.40117688 32.46787571 29.89516007 34.83984375 32.56640625 C35.90797386 33.74819208 36.97702739 34.92914377 38.046875 36.109375 C38.61100098 36.73376465 39.17512695 37.3581543 39.75634766 38.00146484 C42.17770155 40.65380535 44.64868757 43.25748173 47.11914062 45.86401367 C53.0263928 52.10154594 58.766971 58.43689259 64.3137207 64.99707031 C67.37353089 68.6134454 70.50543497 72.14299456 73.71484375 75.62890625 C77.71094011 79.98770563 81.48365697 84.4798384 85.1953125 89.08203125 C87.2320121 91.57929107 89.31035288 94.03334981 91.41186523 96.47607422 C97.87726832 104.00613603 103.89347279 111.84337043 109.87451172 119.76074219 C111.49072729 121.89309632 113.11788891 124.01651359 114.75 126.13671875 C126.02929936 140.79072415 137.29605427 155.47625018 147.24899292 171.07658386 C148.54555323 173.02665333 148.54555323 173.02665333 150.26687622 175.05293274 C155.5743239 181.74840135 156.49650884 186.66453091 156.2109375 195.07421875 C156.20103287 196.19206757 156.19112823 197.30991638 156.18092346 198.4616394 C156.14204231 201.99795176 156.05426412 205.53104774 155.96484375 209.06640625 C155.9296962 211.47781945 155.89776328 213.88928178 155.86914062 216.30078125 C155.79236714 222.1820689 155.67554381 228.06150775 155.52734375 233.94140625 C152.88268587 231.4108154 151.34994043 229.00152127 149.6640625 225.734375 C149.11395508 224.68354736 148.56384766 223.63271973 147.99707031 222.55004883 C147.40893555 221.42107178 146.82080078 220.29209473 146.21484375 219.12890625 C139.60409118 206.64414161 132.30265993 194.73575319 124.52734375 182.94140625 C123.65657353 181.59829016 122.78670139 180.25459116 121.91796875 178.91015625 C112.24129672 164.0417427 101.43170209 149.92360767 90.52734375 135.94140625 C89.6366869 134.79169134 88.74606291 133.64195097 87.85546875 132.4921875 C82.85417864 126.05879038 77.73869795 119.74926008 72.44165039 113.55688477 C69.7305598 110.38367094 67.10042197 107.16469046 64.52734375 103.87890625 C61.10598056 99.55497486 57.42501824 95.50914498 53.66845703 91.47900391 C50.60488462 88.17365424 47.72007845 84.77484525 44.90234375 81.25390625 C41.39429181 76.89389884 37.65040561 72.95660319 33.64453125 69.0546875 C31.67085277 67.08465049 29.84006489 65.0590321 28.02734375 62.94140625 C24.84729719 59.23135193 21.43972573 55.81162758 17.93359375 52.41015625 C15.97557577 50.40128066 14.1464547 48.36377146 12.31884766 46.23950195 C8.83628184 42.24726891 5.19871509 38.45169805 1.45703125 34.703125 C0.8129129 34.05567825 0.16879456 33.40823151 -0.49484253 32.74116516 C-1.8430779 31.3879118 -3.19262933 30.03596842 -4.54345703 28.68530273 C-6.60478362 26.62177125 -8.65795243 24.55034216 -10.7109375 22.47851562 C-12.02945834 21.15706341 -13.34845224 19.836083 -14.66796875 18.515625 C-15.27641632 17.89999191 -15.88486389 17.28435883 -16.51174927 16.65007019 C-19.62919589 13.54922741 -22.53832612 11.00672123 -26.47265625 8.94140625 C-24.97579652 4.45082706 -21.36969801 2.27615955 -17.47265625 -0.05859375 C-11.89788414 -1.91685112 -5.47928008 -2.34578973 0 0 Z " fill="#FCFCF9" transform="translate(853.47265625,866.05859375)"/>
<path d="M0 0 C5.875 4.75 5.875 4.75 7 7 C7.10240502 9.24297736 7.13844876 11.4890715 7.14526367 13.734375 C7.15030159 14.77408951 7.15030159 14.77408951 7.15544128 15.83480835 C7.16497942 18.13989029 7.16689735 20.44489951 7.16796875 22.75 C7.17118483 24.36311879 7.17454916 25.97623728 7.17805481 27.58935547 C7.18405701 30.98568392 7.18589414 34.38198693 7.18530273 37.77832031 C7.18520229 42.07896788 7.1987252 46.37944591 7.21607494 50.68005371 C7.22734746 54.02291572 7.22921717 57.36573912 7.22869301 60.70861816 C7.22985531 62.29024833 7.23417562 63.8718801 7.24202538 65.45349121 C7.30732032 79.99804085 6.1130029 94.32033178 3.375 108.625 C3.2409375 109.35460937 3.106875 110.08421875 2.96875 110.8359375 C2.65146557 112.55833871 2.32670369 114.27936057 2 116 C1.67 116 1.34 116 1 116 C1 110.39 1 104.78 1 99 C1.66 99 2.32 99 3 99 C2.67213501 98.5203479 2.34427002 98.0406958 2.00646973 97.54650879 C0.53533671 93.82433705 0.80314586 90.19291104 0.89648438 86.25585938 C0.90915848 85.37412552 0.92183258 84.49239166 0.93489075 83.5839386 C0.96368002 81.67138935 0.99719099 79.75890668 1.03486633 77.84651184 C1.09420153 74.82072419 1.14077131 71.79497931 1.18395996 68.7689209 C1.29387266 61.25424098 1.42594441 53.73997896 1.55718994 46.22564697 C1.66727343 39.87464883 1.76904804 33.52362369 1.85969543 27.1723175 C1.90573428 24.18966119 1.96407148 21.20740459 2.02282715 18.22497559 C2.0503277 16.3980396 2.07725486 14.57109486 2.10351562 12.74414062 C2.12319901 11.9138887 2.14288239 11.08363678 2.16316223 10.22822571 C2.22548029 4.81259201 2.22548029 4.81259201 0 0 Z " fill="#865D44" transform="translate(1360,909)"/>
<path d="M0 0 C0 0.33 0 0.66 0 1 C-7.73198091 2.92443748 -15.06355676 3.26684178 -23.0078125 3.1953125 C-24.07894287 3.19329834 -25.15007324 3.19128418 -26.25366211 3.18920898 C-30.21081903 3.17883599 -34.16791434 3.15091427 -38.125 3.125 C-51.428125 3.063125 -51.428125 3.063125 -65 3 C-65 29.73 -65 56.46 -65 84 C9.91 84 84.82 84 162 84 C162 84.33 162 84.66 162 85 C86.76 85 11.52 85 -66 85 C-66 57.61 -66 30.22 -66 2 C-43.1875 1.5625 -43.1875 1.5625 -36.05541992 1.43188477 C-34.15542998 1.39369997 -32.25544583 1.35522578 -30.35546875 1.31640625 C-29.39692993 1.29993042 -28.43839111 1.28345459 -27.45080566 1.26647949 C-21.75497957 1.145845 -16.13233417 0.79900173 -10.46479797 0.21372986 C-6.96257626 -0.08995805 -3.51317519 -0.06628632 0 0 Z " fill="#D9C5B7" transform="translate(1110,1264)"/>
<path d="M0 0 C72.6 0 145.2 0 220 0 C220 0.33 220 0.66 220 1 C219.32578286 1.00423194 218.65156572 1.00846388 217.95691776 1.01282406 C201.57489577 1.11599109 185.19291998 1.22460762 168.81097507 1.33933926 C160.88889118 1.39468957 152.96680279 1.44817447 145.04467773 1.49731445 C138.14222538 1.54013421 131.23980643 1.58640652 124.33740562 1.63687855 C120.68041302 1.66349736 117.02342711 1.68835079 113.36639595 1.70907402 C109.29051906 1.73223526 105.2147364 1.7631024 101.13891602 1.79467773 C99.91756454 1.8004332 98.69621307 1.80618866 97.43785095 1.81211853 C95.78240768 1.82680176 95.78240768 1.82680176 94.09352112 1.84178162 C93.12840386 1.84823417 92.16328661 1.85468672 91.16892338 1.8613348 C89.0209099 1.75890646 89.0209099 1.75890646 88 3 C86.1449315 3.12343078 84.28523794 3.17792263 82.42626953 3.20532227 C80.63903976 3.2352401 80.63903976 3.2352401 78.81570435 3.26576233 C76.86892288 3.29083107 76.86892288 3.29083107 74.8828125 3.31640625 C73.54620724 3.33697612 72.20960848 3.35797261 70.87301636 3.37937927 C67.34622545 3.43468136 63.81937478 3.48403842 60.29248047 3.53222656 C56.70925394 3.58227388 53.12611817 3.63811151 49.54296875 3.69335938 C39.36149961 3.84861821 29.18278301 4 19 4 C19 3.01 19 2.02 19 1 C18.49984375 1.17402344 17.9996875 1.34804687 17.484375 1.52734375 C14.03513078 2.18356789 10.72177828 1.84798649 7.25 1.5625 C6.55261719 1.51029297 5.85523438 1.45808594 5.13671875 1.40429688 C3.42403797 1.27525928 1.71194934 1.13840386 0 1 C0 0.67 0 0.34 0 0 Z " fill="#86624C" transform="translate(791,1349)"/>
<path d="M0 0 C0.66 0 1.32 0 2 0 C1.67509929 0.61395378 1.35019857 1.22790756 1.01545238 1.860466 C-0.43207691 6.33587766 -0.27196481 10.55671942 -0.24723816 15.23254395 C-0.24965257 16.27303312 -0.25206699 17.31352229 -0.25455457 18.38554144 C-0.26019717 21.87753388 -0.25152384 25.36934385 -0.24291992 28.86132812 C-0.24399272 31.36310882 -0.24593136 33.86488928 -0.24867249 36.3666687 C-0.25302191 42.46177276 -0.24807321 48.55680525 -0.23882218 54.65189856 C-0.22842611 61.75789732 -0.22850875 68.86388441 -0.22899476 75.96988934 C-0.22949546 88.65929964 -0.2203346 101.34868474 -0.20581055 114.03808594 C-0.19174688 126.3317104 -0.18463878 138.62531269 -0.18530273 150.91894531 C-0.18536267 152.05295583 -0.18536267 152.05295583 -0.18542381 153.20987564 C-0.18546417 153.96461228 -0.18550452 154.71934891 -0.1855461 155.49695635 C-0.18623788 169.51029553 -0.18033169 183.52362533 -0.17139288 197.53696147 C-0.16838755 202.48070106 -0.1673146 207.42443892 -0.16686058 212.36817932 C-0.16610296 219.03956299 -0.1597136 225.7109204 -0.14969444 232.38229752 C-0.14678633 234.82470178 -0.14554063 237.2671087 -0.14612198 239.70951462 C-0.1483605 254.84707556 0.2071903 269.59860459 2.42578125 284.59570312 C2.88881511 287.9812188 3.17504632 290.74793519 2 294 C0.7173554 291.4347108 0.44306957 289.08841444 0 286.25 C-0.165 285.22390625 -0.33 284.1978125 -0.5 283.140625 C-2.38536926 268.65214325 -2.14866879 254.09413119 -2.14526367 239.51513672 C-2.1482597 236.9481654 -2.15166325 234.38119453 -2.15544128 231.81422424 C-2.16369426 225.59706672 -2.16649354 219.37991868 -2.16705366 213.16275613 C-2.16753069 208.11115903 -2.16959467 203.05956502 -2.17275429 198.0079689 C-2.18154057 183.66784915 -2.186176 169.32773684 -2.18542381 154.98761438 C-2.18538386 154.21697507 -2.1853439 153.44633576 -2.18530273 152.65234375 C-2.18526185 151.88075956 -2.18522097 151.10917537 -2.18517885 150.31420983 C-2.18477133 137.77596124 -2.19437272 125.23774252 -2.2084411 112.69950257 C-2.22279163 99.80785644 -2.22971225 86.91622491 -2.22884732 74.02457058 C-2.22851525 66.79341498 -2.23126792 59.56229083 -2.24202538 52.33114243 C-2.25205997 45.54310477 -2.25180894 38.75514483 -2.24450874 31.96710014 C-2.24345916 29.47252874 -2.24584779 26.97795325 -2.2518692 24.4833889 C-2.25953831 21.08730622 -2.25497834 17.69145697 -2.24723816 14.29537964 C-2.25238172 13.30104318 -2.25752529 12.30670671 -2.26282471 11.28223884 C-2.25822592 10.37374219 -2.25362712 9.46524553 -2.24888897 8.52921867 C-2.24921502 7.35359645 -2.24921502 7.35359645 -2.24954766 6.15422428 C-1.96923255 3.73439945 -1.20445275 2.10063012 0 0 Z " fill="#E8FAE4" transform="translate(680,673)"/>
<path d="M0 0 C0.66 0 1.32 0 2 0 C2 27.72 2 55.44 2 84 C1.67 83.01 1.34 82.02 1 81 C0.34 81 -0.32 81 -1 81 C-1 73.08 -1 65.16 -1 57 C-0.34 57 0.32 57 1 57 C0.67 48.09 0.34 39.18 0 30 C-0.33 30 -0.66 30 -1 30 C-3.14780934 20.76101062 -2.44251104 10.33179984 -1 1 C-0.67 0.67 -0.34 0.34 0 0 Z " fill="#845D45" transform="translate(1042,1266)"/>
<path d="M0 0 C0.96788452 -0.00499512 1.93576904 -0.00999023 2.9329834 -0.01513672 C5.73801652 -0.02701591 8.54261728 -0.02389642 11.34765625 -0.015625 C12.18126175 -0.0195929 13.01486725 -0.02356079 13.87373352 -0.02764893 C19.45393811 0.01591916 24.54225077 0.83419425 29.9375 2.25 C30.4325 4.23 30.4325 4.23 30.9375 6.25 C28.91927083 5.98958333 26.90104167 5.72916667 24.8828125 5.46875 C22.93251656 5.2127515 22.93251656 5.2127515 20.9375 5.25 C18.27083333 5.25 15.60416667 5.25 12.9375 5.25 C12.4425 4.26 12.4425 4.26 11.9375 3.25 C-2.2525 3.25 -16.4425 3.25 -31.0625 3.25 C-31.0625 3.91 -31.0625 4.57 -31.0625 5.25 C-31.57296875 5.09660156 -32.0834375 4.94320312 -32.609375 4.78515625 C-35.8374338 4.08094597 -39.01668001 3.90111796 -42.3125 3.6875 C-43.57578125 3.60371094 -44.8390625 3.51992188 -46.140625 3.43359375 C-47.10484375 3.37300781 -48.0690625 3.31242188 -49.0625 3.25 C-49.0625 2.92 -49.0625 2.59 -49.0625 2.25 C-32.70426338 0.47131377 -16.4411189 0.02981533 0 0 Z " fill="#8D6A54" transform="translate(1321.0625,903.75)"/>
<path d="M0 0 C0.33 0 0.66 0 1 0 C1.35358274 4.24299288 0.59641921 5.73043506 -2 9 C-4.70728119 14.73943612 -6.48656749 20.47562348 -7.75 26.6875 C-8.63219589 30.37991666 -10.20676498 33.41162315 -12 36.75 C-14.77039358 42.04138433 -15.96333527 46.79281174 -16.67578125 52.69921875 C-17 55 -17 55 -18 56 C-19.66617115 56.04063832 -21.33388095 56.042721 -23 56 C-23.23074219 55.43152344 -23.46148438 54.86304688 -23.69921875 54.27734375 C-25.39260012 50.26811275 -27.07603714 46.7010119 -29.75 43.25 C-31.99553161 40.00645434 -32.57792305 38.81429215 -32 35 C-22 46.53846154 -22 46.53846154 -22 53 C-21.34 53 -20.68 53 -20 53 C-19.87625 52.154375 -19.7525 51.30875 -19.625 50.4375 C-18.97351154 46.85431346 -18.04658429 43.48861428 -17 40 C-16.7834375 39.21238281 -16.566875 38.42476562 -16.34375 37.61328125 C-14.97955807 32.77188272 -13.39440961 28.39467126 -10.96484375 23.984375 C-9.90424159 21.92397007 -9.90424159 21.92397007 -9.13671875 19.2890625 C-7.7244623 15.20273972 -5.84166834 11.46799502 -3.875 7.625 C-3.50246094 6.88894531 -3.12992188 6.15289063 -2.74609375 5.39453125 C-1.8343878 3.59449642 -0.91770068 1.79698598 0 0 Z " fill="#6E814A" transform="translate(1041,1068)"/>
<path d="M0 0 C0 0.33 0 0.66 0 1 C-7.73198091 2.92443748 -15.06355676 3.26684178 -23.0078125 3.1953125 C-24.07894287 3.19329834 -25.15007324 3.19128418 -26.25366211 3.18920898 C-30.21081903 3.17883599 -34.16791434 3.15091427 -38.125 3.125 C-51.428125 3.063125 -51.428125 3.063125 -65 3 C-65 29.73 -65 56.46 -65 84 C-56.09 84 -47.18 84 -38 84 C-38 84.33 -38 84.66 -38 85 C-47.24 85 -56.48 85 -66 85 C-66 57.61 -66 30.22 -66 2 C-43.1875 1.5625 -43.1875 1.5625 -36.05541992 1.43188477 C-34.15542998 1.39369997 -32.25544583 1.35522578 -30.35546875 1.31640625 C-29.39692993 1.29993042 -28.43839111 1.28345459 -27.45080566 1.26647949 C-21.75497957 1.145845 -16.13233417 0.79900173 -10.46479797 0.21372986 C-6.96257626 -0.08995805 -3.51317519 -0.06628632 0 0 Z " fill="#E5D3C6" transform="translate(1110,1264)"/>
<path d="M0 0 C0.66 0 1.32 0 2 0 C5.45121843 11.52853818 7.85587654 23.12736457 9.75 35 C9.85645844 35.66081573 9.96291687 36.32163147 10.07260132 37.00247192 C12.34294507 51.19690667 13.13967761 64.84848229 13.0625 79.1875 C13.05747294 80.82356633 13.05291217 82.45963417 13.04882812 84.09570312 C13.03792277 88.06383986 13.0207253 92.03190291 13 96 C12.01 96.495 12.01 96.495 11 97 C10.98598145 95.24248413 10.98598145 95.24248413 10.97167969 93.44946289 C10.74787869 61.01279584 10.74787869 61.01279584 6 29 C5.74460449 27.8454834 5.48920898 26.6909668 5.22607422 25.50146484 C3.71599355 18.76025709 2.14417545 12.03722946 0.48730469 5.33056641 C0 3 0 3 0 0 Z " fill="#826C45" transform="translate(999,1165)"/>
<path d="M0 0 C0.33 0 0.66 0 1 0 C1.02792366 1.60405891 1.0467943 3.20827494 1.0625 4.8125 C1.07410156 5.70582031 1.08570313 6.59914063 1.09765625 7.51953125 C1.02000244 10.28711305 0.81633239 12.93915667 0.53125 15.6875 C-0.27976551 24.16538258 -0.36286269 32.67806161 -0.5625 41.1875 C-0.60579049 42.91993014 -0.64940774 44.65235214 -0.69335938 46.38476562 C-0.79933871 50.58975951 -0.90090133 54.79483857 -1 59 C-1.99 59.495 -1.99 59.495 -3 60 C-3.21984244 52.88381956 -3.41451593 45.76726325 -3.59204102 38.64990234 C-3.65530984 36.23080005 -3.72425305 33.81183902 -3.79907227 31.39306641 C-3.905872 27.90809785 -3.99198019 24.42312427 -4.07421875 20.9375 C-4.11157639 19.86322754 -4.14893402 18.78895508 -4.18742371 17.68212891 C-4.31303858 11.35121448 -3.70270177 6.7535654 -1 1 C-0.67 0.67 -0.34 0.34 0 0 Z " fill="#845C42" transform="translate(1044,1170)"/>
<path d="M0 0 C0.33 0 0.66 0 1 0 C2.31093687 6.94951376 2.10789843 13.87134389 2.0625 20.921875 C2.05808855 22.27231673 2.05427351 23.62276053 2.05102539 24.97320557 C2.03966058 29.2321673 2.02039314 33.4910732 2 37.75 C1.97637525 42.70160778 1.95601547 47.65318465 1.94406128 52.60483551 C1.93758636 54.58298985 1.92501115 56.56112117 1.91235352 58.53924561 C1.90905029 59.73769104 1.90574707 60.93613647 1.90234375 62.17089844 C1.89710693 63.22678162 1.89187012 64.28266479 1.88647461 65.37054443 C1.88402019 68.11041501 1.88402019 68.11041501 3 71 C2.01 71.99 1.02 72.98 0 74 C0 49.58 0 25.16 0 0 Z " fill="#E3F2D9" transform="translate(1043,994)"/>
<path d="M0 0 C0.76166977 0.00222061 1.52333954 0.00444122 2.30809021 0.00672913 C3.16890701 0.00680466 4.02972382 0.00688019 4.91662598 0.00695801 C5.8520372 0.01211929 6.78744843 0.01728058 7.75120544 0.02259827 C8.70422043 0.02401321 9.65723541 0.02542816 10.63912964 0.02688599 C13.69605085 0.032503 16.75289996 0.04505836 19.80979919 0.05775452 C21.87685543 0.06276733 23.94391281 0.06733061 26.01097107 0.07142639 C31.08977507 0.08247795 36.16852489 0.09975397 41.24729919 0.12025452 C41.24729919 0.78025452 41.24729919 1.44025452 41.24729919 2.12025452 C36.13518215 2.95909523 31.16125645 3.28024695 25.97776794 3.28822327 C24.83444756 3.29321587 24.83444756 3.29321587 23.66802979 3.29830933 C22.07051695 3.30333878 20.47299376 3.30571889 18.87547302 3.30555725 C16.42437375 3.3077639 13.97371086 3.32601553 11.52268982 3.34486389 C9.96605073 3.34779459 8.40940951 3.34978155 6.85276794 3.35072327 C5.75281746 3.36150154 5.75281746 3.36150154 4.63064575 3.37249756 C-0.52384848 3.34910684 -0.52384848 3.34910684 -2.75270081 1.12025452 C-1.75270081 0.12025452 -1.75270081 0.12025452 0 0 Z " fill="#895D42" transform="translate(1096.752700805664,1349.8797454833984)"/>
<path d="M0 0 C0.28875 0.639375 0.5775 1.27875 0.875 1.9375 C1.82823451 4.15206079 1.82823451 4.15206079 4 5 C4.72359046 6.60345934 5.43671247 8.21239974 6.09863281 9.84228516 C7.09221198 12.22073929 8.18554261 14.53349189 9.3046875 16.85546875 C9.72097412 17.71954346 10.13726074 18.58361816 10.56616211 19.47387695 C10.99807861 20.36937256 11.42999512 21.26486816 11.875 22.1875 C15.48062793 29.7124305 18.9449611 37.23253269 22 45 C22.32871094 45.78890625 22.65742187 46.5778125 22.99609375 47.390625 C25.12017669 52.63946994 25.12017669 52.63946994 24 56 C22.20482618 53.30723927 21.19479183 51.11887101 20.07421875 48.1171875 C15.15206979 35.23098268 9.68993987 22.97766347 3.02807617 10.88623047 C2.48900635 9.89510254 1.94993652 8.90397461 1.39453125 7.8828125 C0.66520386 6.57401123 0.66520386 6.57401123 -0.07885742 5.23876953 C-1 3 -1 3 0 0 Z " fill="#856B46" transform="translate(971,1097)"/>
<path d="M0 0 C11.22 0 22.44 0 34 0 C34 0.99 34 1.98 34 3 C29.66668104 3.0292427 25.33338779 3.04688017 21 3.0625 C19.77925781 3.07087891 18.55851562 3.07925781 17.30078125 3.08789062 C11.10039068 3.10464844 5.1273793 2.97272146 -1 2 C-0.67 1.34 -0.34 0.68 0 0 Z " fill="#8A5D42" transform="translate(1047,1350)"/>
<path d="M0 0 C0.66 0 1.32 0 2 0 C7.33414819 12.21473614 12.56226651 24.42790996 17 37 C17.27505371 37.77601563 17.55010742 38.55203125 17.83349609 39.3515625 C18.69235996 41.79300293 19.5365475 44.23898105 20.375 46.6875 C20.63821045 47.44248779 20.9014209 48.19747559 21.17260742 48.9753418 C22.44654687 52.76887893 23.33637678 55.93945168 23 60 C21.62324414 57.36364331 20.5168214 54.78040087 19.59765625 51.953125 C19.34693359 51.19 19.09621094 50.426875 18.83789062 49.640625 C18.58201172 48.85171875 18.32613281 48.0628125 18.0625 47.25 C14.4414952 36.1369418 10.12879451 25.43647992 5.58398438 14.66796875 C5.15279297 13.64058594 4.72160156 12.61320313 4.27734375 11.5546875 C3.69327759 10.16999268 3.69327759 10.16999268 3.09741211 8.75732422 C1.9484118 5.87038105 0.95567658 2.95598684 0 0 Z " fill="#EDF9E4" transform="translate(1008,864)"/>
<path d="M0 0 C-0.58653795 3.55027968 -1.88078013 5.28823969 -4.3515625 7.86328125 C-5.03863281 8.58580078 -5.72570313 9.30832031 -6.43359375 10.05273438 C-7.15675781 10.79845703 -7.87992188 11.54417969 -8.625 12.3125 C-9.67494141 13.41368164 -9.67494141 13.41368164 -10.74609375 14.53710938 C-15.10011068 19.08903616 -19.52620269 23.5659423 -24 28 C-24.33 26.68 -24.66 25.36 -25 24 C-24.34 24 -23.68 24 -23 24 C-22.67 22.35 -22.34 20.7 -22 19 C-19.69 18.34 -17.38 17.68 -15 17 C-14.938125 16.38125 -14.87625 15.7625 -14.8125 15.125 C-14 13 -14 13 -11.4375 11.75 C-10.633125 11.5025 -9.82875 11.255 -9 11 C-9 10.01 -9 9.02 -9 8 C-8.34 8 -7.68 8 -7 8 C-6.731875 7.236875 -6.46375 6.47375 -6.1875 5.6875 C-4.80876015 2.56719402 -3.66285015 0 0 0 Z " fill="#8D6A54" transform="translate(1296,1162)"/>
<path d="M0 0 C0 0.99 0 1.98 0 3 C-0.70125 2.91878906 -1.4025 2.83757813 -2.125 2.75390625 C-7.61548375 2.38837133 -11.25151661 2.50009899 -15.625 6.0625 C-18.10862733 8.59691725 -18.97503096 9.92068657 -20.0625 13.375 C-19.98900413 17.63776028 -19.62138601 21.78413492 -19 26 C-22.75025334 21.84189418 -22.49855854 18.30717905 -22.34765625 12.9140625 C-21.71651769 7.6238449 -19.22504951 5.16379703 -15.5 1.625 C-10.37850249 -0.75283813 -5.55638275 -0.32367278 0 0 Z " fill="#866B46" transform="translate(828,875)"/>
<path d="M0 0 C0 0.66 0 1.32 0 2 C-11.22 5.63 -22.44 9.26 -34 13 C-34 12.34 -34 11.68 -34 11 C-32.71086513 10.32845067 -31.41859796 9.66291141 -30.125 9 C-29.40570312 8.62875 -28.68640625 8.2575 -27.9453125 7.875 C-26 7 -26 7 -24 7 C-23.67 6.34 -23.34 5.68 -23 5 C-21.1796875 4.4375 -21.1796875 4.4375 -18.875 4 C-14.84864341 3.18704724 -10.94301714 2.15971092 -7 1 C-4.41338197 0.28149499 -2.72795641 0 0 0 Z " fill="#87624B" transform="translate(1245,944)"/>
<path d="M0 0 C0 0.33 0 0.66 0 1 C-7.73186385 2.92440834 -15.06403491 3.26652754 -23.0078125 3.1953125 C-24.2144455 3.1924826 -25.42107849 3.18965271 -26.66427612 3.18673706 C-30.4846221 3.17562141 -34.30472594 3.15053273 -38.125 3.125 C-40.72916326 3.11495907 -43.33333023 3.10583518 -45.9375 3.09765625 C-52.29174804 3.07571033 -58.64585671 3.04231937 -65 3 C-65 2.67 -65 2.34 -65 2 C-64.44813522 1.98969254 -63.89627045 1.97938507 -63.3276825 1.96876526 C-57.53533197 1.85979992 -51.74310922 1.74528664 -45.95092773 1.62768555 C-43.7950307 1.58462244 -41.63910579 1.54292997 -39.4831543 1.50268555 C-36.36759069 1.44428225 -33.2521637 1.38079745 -30.13671875 1.31640625 C-28.71258919 1.29133751 -28.71258919 1.29133751 -27.25968933 1.26576233 C-21.63086668 1.14374819 -16.07348152 0.79081174 -10.4724884 0.21372986 C-6.96760115 -0.08924388 -3.51578221 -0.06633551 0 0 Z " fill="#F1E3D7" transform="translate(1110,1264)"/>
<path d="M0 0 C6.74080425 5.52650334 12.8071129 11.69449559 18.9375 17.875 C20.01343727 18.95596274 21.08960731 20.03669383 22.16601562 21.1171875 C24.78003292 23.74212641 27.39088596 26.37018628 30 29 C29.34 29.66 28.68 30.32 28 31 C27.38910522 30.34366577 27.38910522 30.34366577 26.76586914 29.67407227 C14.78285031 15.01478183 14.78285031 15.01478183 0 4 C0 2.68 0 1.36 0 0 Z " fill="#BBBF8E" transform="translate(818,911)"/>
<path d="M0 0 C0.33 0 0.66 0 1 0 C3.69921728 8.41520683 3.31137647 15.81578498 0 24 C-0.16757757 27.20870233 -0.16757757 27.20870233 0 30 C-0.66 30.33 -1.32 30.66 -2 31 C-2.86522528 26.75956686 -2.99374382 23.23145202 -2.44140625 18.9453125 C-2.30283203 17.83671875 -2.16425781 16.728125 -2.02148438 15.5859375 C-1.87001953 14.44382812 -1.71855469 13.30171875 -1.5625 12.125 C-1.41490234 10.9596875 -1.26730469 9.794375 -1.11523438 8.59375 C-0.75115493 5.7280924 -0.37917702 2.86369234 0 0 Z " fill="#8B6550" transform="translate(1333,988)"/>
<path d="M0 0 C0.72265625 1.58203125 0.72265625 1.58203125 1 4 C-0.09245417 6.37734608 -1.20585114 8.47089397 -2.5625 10.6875 C-2.92802979 11.30383301 -3.29355957 11.92016602 -3.67016602 12.55517578 C-9.83108943 22.85519656 -9.83108943 22.85519656 -13 27 C-13.33 27 -13.66 27 -14 27 C-13.25 20.375 -13.25 20.375 -11 17 C-10.34 17 -9.68 17 -9 17 C-9 16.34 -9 15.68 -9 15 C-8.34 15 -7.68 15 -7 15 C-6.8453125 13.9171875 -6.8453125 13.9171875 -6.6875 12.8125 C-5.93206053 9.72206579 -4.84468685 7.58256159 -3 5 C-2.34 5 -1.68 5 -1 5 C-0.67 3.35 -0.34 1.7 0 0 Z " fill="#896550" transform="translate(1328,1113)"/>
<path d="M0 0 C0 0.66 0 1.32 0 2 C-10.37357631 5.44419134 -10.37357631 5.44419134 -16 5 C-16.33 5.66 -16.66 6.32 -17 7 C-22.97205763 9.33689212 -28.65065488 9.20666946 -35 9 C-35 8.67 -35 8.34 -35 8 C-34.35039307 7.86424561 -33.70078613 7.72849121 -33.03149414 7.58862305 C-30.04065673 6.96035842 -27.0515988 6.32398291 -24.0625 5.6875 C-23.04091797 5.47416016 -22.01933594 5.26082031 -20.96679688 5.04101562 C-15.44734299 3.85953508 -10.13896569 2.51001011 -4.83764648 0.56176758 C-3 0 -3 0 0 0 Z " fill="#91715C" transform="translate(1158,1219)"/>
<path d="M0 0 C10 11.53846154 10 11.53846154 10 18 C10.99 18 11.98 18 13 18 C13.33 17.01 13.66 16.02 14 15 C14.33 15 14.66 15 15 15 C15.042721 16.66611905 15.04063832 18.33382885 15 20 C14 21 14 21 11.4375 21.0625 C10.633125 21.041875 9.82875 21.02125 9 21 C8.76925781 20.43152344 8.53851562 19.86304688 8.30078125 19.27734375 C6.60739988 15.26811275 4.92396286 11.7010119 2.25 8.25 C0.00446839 5.00645434 -0.57792305 3.81429215 0 0 Z " fill="#7D7044" transform="translate(1009,1103)"/>
<path d="M0 0 C3.62334366 3.43135228 6.45149819 6.89171569 9.171875 11.0703125 C9.53976135 11.63321991 9.90764771 12.19612732 10.28668213 12.77609253 C11.05583744 13.95577646 11.82206358 15.13737506 12.58544922 16.32080078 C13.75415832 18.13144235 14.93293675 19.93520834 16.11328125 21.73828125 C21.85534395 30.56603185 21.85534395 30.56603185 23 34 C22.34 34 21.68 34 21 34 C19.3633245 31.73701547 17.85434489 29.48732888 16.375 27.125 C15.95476563 26.47402344 15.53453125 25.82304688 15.1015625 25.15234375 C12 20.26838981 12 20.26838981 12 18 C11.34 18 10.68 18 10 18 C9.46375 17.030625 8.9275 16.06125 8.375 15.0625 C6.18315787 11.19918114 3.70652303 7.56309376 1.171875 3.91796875 C0 2 0 2 0 0 Z " fill="#BDBE8F" transform="translate(936,1047)"/>
<path d="M0 0 C0 0.66 0 1.32 0 2 C-0.99 2 -1.98 2 -3 2 C-3.433125 2.928125 -3.433125 2.928125 -3.875 3.875 C-5 6 -5 6 -7 8 C-8.89484626 13.11608489 -8.260138 18.80193076 -7 24 C-7.66 24.33 -8.32 24.66 -9 25 C-11.55143325 20.21606265 -11.68697445 15.28376647 -11 10 C-8.91445907 5.82891814 -5.19366581 0 0 0 Z " fill="#8C6B58" transform="translate(791,1350)"/>
<path d="M0 0 C0.66 0 1.32 0 2 0 C-0.00798403 6.35861611 -2.57233359 12.48256103 -5.078125 18.65625 C-6.85854327 23.06743557 -8.56639725 27.46025795 -10 32 C-10.33 32 -10.66 32 -11 32 C-11.27564633 27.12031489 -10.373385 23.50779001 -8.6875 18.9375 C-8.25824219 17.75027344 -7.82898437 16.56304688 -7.38671875 15.33984375 C-6.13900226 12.3347801 -4.71664621 9.75223169 -3 7 C-2.40883159 5.74224664 -1.84164958 4.47257756 -1.3125 3.1875 C-0.879375 2.135625 -0.44625 1.08375 0 0 Z " fill="#876550" transform="translate(1067,1090)"/>
<path d="M0 0 C0.66 0.99 1.32 1.98 2 3 C1.55615234 4.94189453 1.55615234 4.94189453 0.5859375 7.1328125 C0.23660156 7.93976563 -0.11273437 8.74671875 -0.47265625 9.578125 C-0.85292969 10.41859375 -1.23320313 11.2590625 -1.625 12.125 C-1.98207031 12.94226562 -2.33914063 13.75953125 -2.70703125 14.6015625 C-3.79074855 17.07415937 -4.89357177 19.53749291 -6 22 C-6.75846634 23.70543853 -7.51631352 25.41115261 -8.2734375 27.1171875 C-8.84889824 28.41148506 -9.42439537 29.70576643 -10 31 C-10.33 31 -10.66 31 -11 31 C-10.46246904 24.81839396 -8.45417612 19.673142 -6 14 C-5.34 14 -4.68 14 -4 14 C-3.8453125 12.7625 -3.8453125 12.7625 -3.6875 11.5 C-2.88353944 7.40710988 -1.53647842 3.87459775 0 0 Z " fill="#866550" transform="translate(1347,1071)"/>
<path d="M0 0 C5.93704615 0.44807895 10.84891652 1.88264152 16.38671875 4.0625 C18.91924532 4.97102971 21.35271332 5.54209095 24 6 C24 6.66 24 7.32 24 8 C26.97 8.495 26.97 8.495 30 9 C30 9.66 30 10.32 30 11 C23.0449018 8.98086853 16.19969087 6.73400143 9.375 4.3125 C8.46621094 3.99216797 7.55742188 3.67183594 6.62109375 3.34179688 C4.41332207 2.56326686 2.20631463 1.78264756 0 1 C0 0.67 0 0.34 0 0 Z " fill="#DEECD6" transform="translate(798,687)"/>
<path d="M0 0 C0.66 0 1.32 0 2 0 C1.34547135 3.53445469 -0.10880458 5.96057879 -2 9 C-3.68592065 11.98936379 -5.34329667 14.99436037 -7 18 C-7.99 17.67 -8.98 17.34 -10 17 C-8.38698859 14.15967798 -6.75766945 11.32906084 -5.125 8.5 C-4.66480469 7.68917969 -4.20460938 6.87835937 -3.73046875 6.04296875 C-3.28574219 5.27597656 -2.84101562 4.50898437 -2.3828125 3.71875 C-1.97434082 3.00654297 -1.56586914 2.29433594 -1.14501953 1.56054688 C-0.76716309 1.04556641 -0.38930664 0.53058594 0 0 Z " fill="#88684E" transform="translate(1052,1053)"/>
<path d="M0 0 C0.33 0 0.66 0 1 0 C1.04898438 0.7528125 1.09796875 1.505625 1.1484375 2.28125 C1.65229315 9.43947514 2.38317936 16.51955773 3.42724609 23.6171875 C3.8918912 26.99580912 4.17249062 29.75500837 3 33 C-1.73521741 23.52956518 -0.20780265 10.28623121 0 0 Z " fill="#DEEFD9" transform="translate(679,934)"/>
<path d="M0 0 C-2 2 -2 2 -4.8125 2.4375 C-8.01108082 2.77881602 -8.01108082 2.77881602 -10.3125 4.5625 C-14.17195505 6.62685968 -17.7102743 6.25233681 -22 6 C-18.51134231 3.6742282 -14.96055189 2.54929156 -11 1.3125 C-9.91332031 0.95575195 -9.91332031 0.95575195 -8.8046875 0.59179688 C-3.36149591 -1.12049864 -3.36149591 -1.12049864 0 0 Z " fill="#906E5A" transform="translate(1229,917)"/>
<path d="M0 0 C6.41069287 5.27101414 12.18590512 11.09128152 18 17 C17.67 17.66 17.34 18.32 17 19 C16.01 18.67 15.02 18.34 14 18 C14 17.34 14 16.68 14 16 C13.01 15.67 12.02 15.34 11 15 C11 14.01 11 13.02 11 12 C10.01 11.67 9.02 11.34 8 11 C6.2109375 9.2578125 6.2109375 9.2578125 4.375 7.125 C3.76398437 6.42632813 3.15296875 5.72765625 2.5234375 5.0078125 C1 3 1 3 0 0 Z " fill="#84614B" transform="translate(838,884)"/>
<path d="M0 0 C0.99 0.33 1.98 0.66 3 1 C3.9831543 3.05371094 3.9831543 3.05371094 4.82421875 5.734375 C5.13037109 6.70117188 5.43652344 7.66796875 5.75195312 8.6640625 C6.06068359 9.68242188 6.36941406 10.70078125 6.6875 11.75 C7.00783203 12.75289062 7.32816406 13.75578125 7.65820312 14.7890625 C9.07595392 19.3476301 10.19746491 23.18943019 10 28 C8.61166902 25.34176326 7.49757793 22.73097005 6.5625 19.8828125 C6.17964844 18.72458984 6.17964844 18.72458984 5.7890625 17.54296875 C5.39847656 16.34607422 5.39847656 16.34607422 5 15.125 C4.73960938 14.33480469 4.47921875 13.54460938 4.2109375 12.73046875 C3.7045554 11.19342006 3.19930311 9.65599857 2.6953125 8.11816406 C1.80601348 5.40904948 0.90428037 2.70414609 0 0 Z " fill="#EAF8E2" transform="translate(1021,896)"/>
<path d="M0 0 C0.33 0 0.66 0 1 0 C0.66304064 4.12775214 0.15977416 7.06450275 -2 10.625 C-3.77979512 13.62840427 -4.58693713 15.59223133 -5 19 C-6.32 19.33 -7.64 19.66 -9 20 C-7.32073668 15.63221913 -5.36694083 11.41834992 -3.375 7.1875 C-2.88773438 6.14819336 -2.88773438 6.14819336 -2.390625 5.08789062 C-1.59500115 3.39133977 -0.79767301 1.69558835 0 0 Z " fill="#896751" transform="translate(1308,1083)"/>
<path d="M0 0 C0 0.66 0 1.32 0 2 C-7.00242552 4.11670277 -13.69303751 5.54034292 -21 6 C-21 5.34 -21 4.68 -21 4 C-18.43923903 3.32595716 -15.87673417 2.660586 -13.3125 2 C-12.59126953 1.80921875 -11.87003906 1.6184375 -11.12695312 1.421875 C-7.33149039 0.45134572 -3.95384561 -0.24955239 0 0 Z " fill="#865F49" transform="translate(1158,1252)"/>
<path d="M0 0 C0 3 0 3 -1 6 C-2.99191762 7.65469197 -4.96346495 9.18339146 -7.0625 10.6875 C-7.63033203 11.10322266 -8.19816406 11.51894531 -8.78320312 11.94726562 C-10.18403173 12.97140082 -11.59140348 13.98657535 -13 15 C-13.66 14.67 -14.32 14.34 -15 14 C-10.05 9.38 -5.1 4.76 0 0 Z " fill="#92705D" transform="translate(1256,1157)"/>
<path d="M0 0 C0.66 0.33 1.32 0.66 2 1 C-7.41002278 12.52164009 -7.41002278 12.52164009 -12 18 C-12.66 17.67 -13.32 17.34 -14 17 C-11.85507879 14.35342605 -9.70891028 11.70786638 -7.5625 9.0625 C-6.95083984 8.30775391 -6.33917969 7.55300781 -5.70898438 6.77539062 C-5.12568359 6.05673828 -4.54238281 5.33808594 -3.94140625 4.59765625 C-3.40201416 3.93258057 -2.86262207 3.26750488 -2.30688477 2.58227539 C-1 1 -1 1 0 0 Z " fill="#F3E8DE" transform="translate(1106,1034)"/>
<path d="M0 0 C0.66 0.33 1.32 0.66 2 1 C0.38405168 3.04119788 -1.2856382 5.04072937 -3 7 C-3.66 7 -4.32 7 -5 7 C-5.226875 7.556875 -5.45375 8.11375 -5.6875 8.6875 C-7.35896766 11.63246684 -9.55276352 13.68156544 -12 16 C-12.66 15.67 -13.32 15.34 -14 15 C-12.0421736 12.87453098 -10.08376183 10.74960666 -8.125 8.625 C-7.29162109 7.72007812 -7.29162109 7.72007812 -6.44140625 6.796875 C-5.90644531 6.21679688 -5.37148437 5.63671875 -4.8203125 5.0390625 C-4.08192139 4.23782959 -4.08192139 4.23782959 -3.32861328 3.42041016 C-2.24184238 2.25855182 -1.12494128 1.12494128 0 0 Z " fill="#ECE0D6" transform="translate(1126,1012)"/>
<path d="M0 0 C0.66 0.33 1.32 0.66 2 1 C1.67 1.99 1.34 2.98 1 4 C0.401875 4.28875 -0.19625 4.5775 -0.8125 4.875 C-3.20639747 5.91640719 -3.20639747 5.91640719 -4.9375 8.4375 C-7.09812593 11.12191403 -8.89900732 12.53110873 -12 14 C-12.66 13.67 -13.32 13.34 -14 13 C-9.38 8.71 -4.76 4.42 0 0 Z " fill="#8D6D59" transform="translate(1118,974)"/>
<path d="M0 0 C0.66 0.66 1.32 1.32 2 2 C-5.87746171 7.88183807 -5.87746171 7.88183807 -10.5625 8.375 C-11.366875 8.25125 -12.17125 8.1275 -13 8 C-8.98745115 4.48901975 -4.79016959 2.23462006 0 0 Z " fill="#906D57" transform="translate(1206,1196)"/>
<path d="M0 0 C-1.74671596 2.35426933 -3.14260308 3.81127506 -6.05859375 4.453125 C-8.37110435 4.68710584 -10.68084197 4.84779274 -13 5 C-15.00277585 5.31622777 -17.00430399 5.64179815 -19 6 C-16.3927098 3.3927098 -13.4640743 2.51973213 -10.0625 1.3125 C-9.42892578 1.07466797 -8.79535156 0.83683594 -8.14257812 0.59179688 C-3.36446856 -1.12148952 -3.36446856 -1.12148952 0 0 Z " fill="#94725E" transform="translate(1177,1213)"/>
<path d="M0 0 C0.99 0 1.98 0 3 0 C1.52202738 3.67056937 -0.47615477 5.41085783 -3.625 7.75 C-4.44226562 8.36359375 -5.25953125 8.9771875 -6.1015625 9.609375 C-6.72804688 10.06828125 -7.35453125 10.5271875 -8 11 C-8.66 10.01 -9.32 9.02 -10 8 C-8.71283353 6.99421411 -7.42011342 5.99553202 -6.125 5 C-5.40570312 4.443125 -4.68640625 3.88625 -3.9453125 3.3125 C-2 2 -2 2 0 2 C0 1.34 0 0.68 0 0 Z " fill="#8B6751" transform="translate(1153,986)"/>
<path d="M0 0 C0.33 0.66 0.66 1.32 1 2 C0.030625 2.12375 -0.93875 2.2475 -1.9375 2.375 C-2.948125 2.58125 -3.95875 2.7875 -5 3 C-5.33 3.66 -5.66 4.32 -6 5 C-7.65 5 -9.3 5 -11 5 C-11 4.34 -11 3.68 -11 3 C-11.99 2.67 -12.98 2.34 -14 2 C-9.15758367 0.66416101 -5.06562383 -0.25328119 0 0 Z " fill="#916E59" transform="translate(1250,911)"/>
<path d="M0 0 C0.66 0.66 1.32 1.32 2 2 C1.401875 2.556875 0.80375 3.11375 0.1875 3.6875 C-2.08795517 5.89703611 -2.08795517 5.89703611 -3.4375 8.625 C-5.31152827 11.47352298 -6.78737115 12.04489413 -10 13 C-7.02480663 8.30834891 -3.68606635 4.15296809 0 0 Z " fill="#8E6D58" transform="translate(1084,1008)"/>
<path d="M0 0 C1.31148244 3.93444732 0.33242737 5.35081977 -1.25 9.125 C-1.68828125 10.20007812 -2.1265625 11.27515625 -2.578125 12.3828125 C-4 15 -4 15 -7 16 C-6.39642962 12.18653263 -5.26488908 9.17716834 -3.5 5.75 C-2.83484375 4.44289063 -2.83484375 4.44289063 -2.15625 3.109375 C-1 1 -1 1 0 0 Z " fill="#7F6F45" transform="translate(1041,1073)"/>
<path d="M0 0 C0.33 0.66 0.66 1.32 1 2 C-1.85276137 4.93200474 -4.65079784 7.64315404 -8 10 C-8.66 9.34 -9.32 8.68 -10 8 C-6.7 5.36 -3.4 2.72 0 0 Z " fill="#8C6A54" transform="translate(1131,964)"/>
<path d="M0 0 C-2.09836004 1.03271642 -4.20390891 2.05083717 -6.3125 3.0625 C-7.48425781 3.63097656 -8.65601563 4.19945312 -9.86328125 4.78515625 C-13 6 -13 6 -16 5 C-15.4225 4.731875 -14.845 4.46375 -14.25 4.1875 C-11.96318755 3.07255182 -11.96318755 3.07255182 -10.0625 1.4375 C-6.5670347 -0.99873339 -4.01313509 -1.3377117 0 0 Z " fill="#89644F" transform="translate(1205,1236)"/>
<path d="M0 0 C-0.33 0.66 -0.66 1.32 -1 2 C-4.62138266 3.02273507 -8.06734756 3.10762232 -11.8125 3.0625 C-13.27623047 3.04896484 -13.27623047 3.04896484 -14.76953125 3.03515625 C-15.87361328 3.01775391 -15.87361328 3.01775391 -17 3 C-17 2.67 -17 2.34 -17 2 C-11.23918159 0.7017874 -5.91260345 -0.25706972 0 0 Z " fill="#8B6A55" transform="translate(1140,1225)"/>
<path d="M0 0 C0.66 0 1.32 0 2 0 C3.5830205 1.73696562 5.09353724 3.54056497 6.5625 5.375 C7.36816406 6.37273438 8.17382812 7.37046875 9.00390625 8.3984375 C11 11 11 11 12 13 C6.78103877 10.57691086 3.70844342 8.15893985 1 3 C0.67 2.01 0.34 1.02 0 0 Z " fill="#BBBF8E" transform="translate(885,983)"/>
<path d="M0 0 C4.5402233 1.34979612 5.72936172 2.95234045 8 7 C10.06954847 8.78344178 10.06954847 8.78344178 12 10 C11.67 10.99 11.34 11.98 11 13 C6.78185183 9.0299782 3.38772897 4.69159716 0 0 Z " fill="#866B46" transform="translate(883,979)"/>
<path d="M0 0 C6.93 0.495 6.93 0.495 14 1 C13.67 1.66 13.34 2.32 13 3 C9.04 3 5.08 3 1 3 C0.67 2.01 0.34 1.02 0 0 Z " fill="#5B824A" transform="translate(699,668)"/>
<path d="M0 0 C1.66362709 3.32725418 0.11964677 6.63462495 -1 10 C-2.625 13 -2.625 13 -4 15 C-5.11346788 12.19966161 -5.03510273 11.09856297 -4.00390625 8.203125 C-3.52824219 7.22859375 -3.05257813 6.2540625 -2.5625 5.25 C-2.08941406 4.26515625 -1.61632813 3.2803125 -1.12890625 2.265625 C-0.75636719 1.51796875 -0.38382813 0.7703125 0 0 Z " fill="#7E7146" transform="translate(1033,1089)"/>
<path d="M0 0 C0.66 0 1.32 0 2 0 C2.69965443 1.26418246 3.38434763 2.53665402 4.0625 3.8125 C4.63677734 4.87404297 4.63677734 4.87404297 5.22265625 5.95703125 C6 8 6 8 5 11 C1.7089159 7.39042389 0.45336079 4.87362847 0 0 Z " fill="#84614B" transform="translate(995,1078)"/>
<path d="M0 0 C0.66 0.33 1.32 0.66 2 1 C0.38113585 2.67262717 -1.2452729 4.33795537 -2.875 6 C-3.77992187 6.928125 -4.68484375 7.85625 -5.6171875 8.8125 C-8 11 -8 11 -10 11 C-10 9 -10 9 -8.125 6.875 C-6 5 -6 5 -4 5 C-4 4.34 -4 3.68 -4 3 C-3.34 3 -2.68 3 -2 3 C-2 2.34 -2 1.68 -2 1 C-1.34 0.67 -0.68 0.34 0 0 Z " fill="#86624C" transform="translate(1124,1012)"/>
<path d="M0 0 C-1.50223584 4.20626034 -4.28550034 5.73900021 -8 8 C-8.66 7.34 -9.32 6.68 -10 6 C-8.71283353 4.99421411 -7.42011342 3.99553202 -6.125 3 C-5.40570312 2.443125 -4.68640625 1.88625 -3.9453125 1.3125 C-2 0 -2 0 0 0 Z " fill="#8F6D57" transform="translate(1144,956)"/>
<path d="M0 0 C0 0.66 0 1.32 0 2 C-5.445 3.485 -5.445 3.485 -11 5 C-11.66 4.34 -12.32 3.68 -13 3 C-11.58603098 2.49242138 -10.16868271 1.99425075 -8.75 1.5 C-7.96109375 1.2215625 -7.1721875 0.943125 -6.359375 0.65625 C-4 0 -4 0 0 0 Z " fill="#8B664F" transform="translate(1177,1246)"/>
<path d="M0 0 C0 0.66 0 1.32 0 2 C-3.34880626 4.74219867 -6.67076296 6.86153781 -11 7.3125 C-11.66 7.209375 -12.32 7.10625 -13 7 C-4.25 0 -4.25 0 0 0 Z " fill="#8C6C59" transform="translate(1179,935)"/>
<path d="M0 0 C-1.05041579 2.86477034 -1.70124563 3.83913226 -4.4375 5.3125 C-7 6 -7 6 -10 5 C-8.71186658 4.16121545 -7.41936744 3.32913217 -6.125 2.5 C-5.40570312 2.0359375 -4.68640625 1.571875 -3.9453125 1.09375 C-2 0 -2 0 0 0 Z " fill="#8F6A55" transform="translate(1155,949)"/>
<path d="M0 0 C0.33 0.66 0.66 1.32 1 2 C-0.41433206 2.2236337 -1.83167618 2.42826476 -3.25 2.625 C-4.03890625 2.74101563 -4.8278125 2.85703125 -5.640625 2.9765625 C-8.32152459 3.00319395 -9.72694089 2.36592084 -12 1 C-7.93631321 0.22596442 -4.13574827 -0.0984702 0 0 Z " fill="#906E58" transform="translate(1123,1228)"/>
<path d="M0 0 C2.64752004 2.57784846 4.94432065 4.91648098 7 8 C4.64828869 7.40138258 2.3140622 6.73075648 0 6 C-1.24546405 3.50907189 -0.7767578 2.58919267 0 0 Z " fill="#88654E" transform="translate(949,1009)"/>
<path d="M0 0 C-1.28813342 0.83878455 -2.58063256 1.67086783 -3.875 2.5 C-4.59429688 2.9640625 -5.31359375 3.428125 -6.0546875 3.90625 C-8 5 -8 5 -10 5 C-9.8125 3.125 -9.8125 3.125 -9 1 C-5.5637798 -0.95028714 -3.70512932 -1.09810869 0 0 Z " fill="#8D6954" transform="translate(1178,974)"/>
<path d="M0 0 C1.6254308 0.14095064 3.25034051 0.28792087 4.875 0.4375 C5.77992188 0.51871094 6.68484375 0.59992188 7.6171875 0.68359375 C10 1 10 1 12 2 C12 2.66 12 3.32 12 4 C10.5608866 3.71640113 9.12374482 3.42278601 7.6875 3.125 C6.88699219 2.96257812 6.08648438 2.80015625 5.26171875 2.6328125 C3 2 3 2 0 0 Z " fill="#749366" transform="translate(918,1241)"/>
<path d="M0 0 C1.26339822 3.79019466 0.49719015 5.37522384 -1 9 C-1.99 9.495 -1.99 9.495 -3 10 C-3.75 8.375 -3.75 8.375 -4 6 C-2.0625 2.75 -2.0625 2.75 0 0 Z " fill="#8E6750" transform="translate(1298,1103)"/>
<path d="M0 0 C2.13586678 3.20380017 2.23132175 4.01939967 2.125 7.6875 C2.10695313 8.49574219 2.08890625 9.30398438 2.0703125 10.13671875 C2.04710937 10.75160156 2.02390625 11.36648438 2 12 C1.01 12.495 1.01 12.495 0 13 C-1.0161692 8.37078475 -0.83796731 4.65537393 0 0 Z " fill="#92715F" transform="translate(1331,1006)"/>
<path d="M0 0 C-5.445 2.475 -5.445 2.475 -11 5 C-10.67 3.68 -10.34 2.36 -10 1 C-3.375 -1.125 -3.375 -1.125 0 0 Z " fill="#8D6A54" transform="translate(1207,959)"/>
<path d="M0 0 C-1 3 -1 3 -2.84765625 3.94921875 C-3.57855469 4.19285156 -4.30945312 4.43648437 -5.0625 4.6875 C-6.16271484 5.06455078 -6.16271484 5.06455078 -7.28515625 5.44921875 C-7.85105469 5.63097656 -8.41695312 5.81273437 -9 6 C-9.66 5.34 -10.32 4.68 -11 4 C-9.5437455 3.32880451 -8.08492133 2.66318193 -6.625 2 C-5.81289062 1.62875 -5.00078125 1.2575 -4.1640625 0.875 C-2 0 -2 0 0 0 Z " fill="#8E6E5A" transform="translate(1190,930)"/>
<path d="M0 0 C0.33 0.66 0.66 1.32 1 2 C-0.41433206 2.2236337 -1.83167618 2.42826476 -3.25 2.625 C-4.03890625 2.74101563 -4.8278125 2.85703125 -5.640625 2.9765625 C-8.32152459 3.00319395 -9.72694089 2.36592084 -12 1 C-7.93631321 0.22596442 -4.13574827 -0.0984702 0 0 Z " fill="#93715E" transform="translate(1266,908)"/>
<path d="M0 0 C0.99 0.33 1.98 0.66 3 1 C-1.455 3.97 -1.455 3.97 -6 7 C-6.33 6.01 -6.66 5.02 -7 4 C-5.35 3.67 -3.7 3.34 -2 3 C-2 2.34 -2 1.68 -2 1 C-1.34 0.67 -0.68 0.34 0 0 Z " fill="#8D6B57" transform="translate(1231,1218)"/>
<path d="M0 0 C0.33 0.99 0.66 1.98 1 3 C-0.98 4.32 -2.96 5.64 -5 7 C-5.66 6.34 -6.32 5.68 -7 5 C-4.69 3.35 -2.38 1.7 0 0 Z " fill="#8E6B55" transform="translate(1228,1181)"/>
<path d="M0 0 C1 3 1 3 0.3125 5.0625 C-1.22175682 7.32735531 -2.55419976 7.87921578 -5 9 C-4.3566152 7.686298 -3.71021785 6.37407102 -3.0625 5.0625 C-2.70285156 4.33160156 -2.34320312 3.60070313 -1.97265625 2.84765625 C-1 1 -1 1 0 0 Z " fill="#8F6D57" transform="translate(1060,1040)"/>
<path d="M0 0 C-1.5830577 4.2742558 -4.50568404 6.26531794 -8 9 C-8.66 8.67 -9.32 8.34 -10 8 C-8.71451591 6.66070495 -7.42141845 5.32871357 -6.125 4 C-5.04605469 2.88625 -5.04605469 2.88625 -3.9453125 1.75 C-2 0 -2 0 0 0 Z " fill="#856450" transform="translate(1103,990)"/>
<path d="M0 0 C3.36720387 1.39332574 4.9859524 2.9789286 7 6 C6.01 6.495 6.01 6.495 5 7 C3.02 5.35 1.04 3.7 -1 2 C-0.67 1.34 -0.34 0.68 0 0 Z " fill="#8D6A55" transform="translate(862,909)"/>
<path d="M0 0 C0.99 0.33 1.98 0.66 3 1 C-0.96 4.465 -0.96 4.465 -5 8 C-5.33 7.01 -5.66 6.02 -6 5 C-5.34 5 -4.68 5 -4 5 C-3.67 4.01 -3.34 3.02 -3 2 C-2.01 2 -1.02 2 0 2 C0 1.34 0 0.68 0 0 Z " fill="#93725D" transform="translate(1263,1194)"/>
<path d="M0 0 C0.99 0 1.98 0 3 0 C2.34 3.63 1.68 7.26 1 11 C0.67 11 0.34 11 0 11 C0 7.37 0 3.74 0 0 Z " fill="#91715C" transform="translate(1051,1130)"/>
<path d="M0 0 C0.66 0.99 1.32 1.98 2 3 C0.68 5.64 -0.64 8.28 -2 11 C-2.66 11 -3.32 11 -4 11 C-2.7874262 7.27566618 -1.49140021 3.62197194 0 0 Z " fill="#8F6E5B" transform="translate(1313,1072)"/>
<path d="M0 0 C0.33 0 0.66 0 1 0 C1.390625 5.859375 1.390625 5.859375 1 8 C-0.32 9.32 -1.64 10.64 -3 12 C-2.01 8.04 -1.02 4.08 0 0 Z " fill="#967866" transform="translate(1321,1049)"/>
<path d="M0 0 C0.33 0.66 0.66 1.32 1 2 C-0.1875 5.0625 -0.1875 5.0625 -2 8 C-3.32 8.33 -4.64 8.66 -6 9 C-4.02 6.03 -2.04 3.06 0 0 Z " fill="#957560" transform="translate(1073,1021)"/>
<path d="M0 0 C0.99 0.33 1.98 0.66 3 1 C4.54613006 5.09724467 5.29227216 7.81857651 4 12 C3.3291288 10.3767313 2.66342971 8.75132422 2 7.125 C1.62875 6.22007812 1.2575 5.31515625 0.875 4.3828125 C0 2 0 2 0 0 Z " fill="#DEEDD4" transform="translate(1021,896)"/>
<path d="M0 0 C0 3 0 3 -1.3125 4.38671875 C-2.875 5.59114583 -4.4375 6.79557292 -6 8 C-6.66 7.67 -7.32 7.34 -8 7 C-5.36 4.69 -2.72 2.38 0 0 Z " fill="#8B6B57" transform="translate(1249,1164)"/>
<path d="M0 0 C1.98 1.65 3.96 3.3 6 5 C5.34 6.32 4.68 7.64 4 9 C2.00902154 6.01353231 1.05875074 3.40312738 0 0 Z " fill="#8B6752" transform="translate(897,946)"/>
<path d="M0 0 C1.33333333 0.66666667 2.66666667 1.33333333 4 2 C5.0828125 2.4640625 5.0828125 2.4640625 6.1875 2.9375 C8 4 8 4 9 7 C4.58110387 5.64978174 2.65654657 3.73884332 0 0 Z " fill="#90705E" transform="translate(783,1375)"/>
<path d="M0 0 C1.32 0.33 2.64 0.66 4 1 C1.63707344 3.52588702 0.33537489 4.88820837 -3 6 C-3 5.01 -3 4.02 -3 3 C-2.01 3 -1.02 3 0 3 C0 2.01 0 1.02 0 0 Z " fill="#8D6955" transform="translate(1239,1211)"/>
<path d="M0 0 C0 3 0 3 -2.5 5.6875 C-3.325 6.450625 -4.15 7.21375 -5 8 C-5.66 7.67 -6.32 7.34 -7 7 C-4.69 4.69 -2.38 2.38 0 0 Z " fill="#8F6F5B" transform="translate(1264,1149)"/>
<path d="M0 0 C0.33 0 0.66 0 1 0 C1.25 2.3125 1.25 2.3125 1 5 C-1 6.8125 -1 6.8125 -3 8 C-3.66 7.67 -4.32 7.34 -5 7 C-4.19152271 5.83054208 -3.37810888 4.66449539 -2.5625 3.5 C-2.11003906 2.8503125 -1.65757813 2.200625 -1.19140625 1.53125 C-0.79824219 1.0259375 -0.40507813 0.520625 0 0 Z " fill="#8C6B55" transform="translate(1278,1132)"/>
<path d="M0 0 C0.66 0 1.32 0 2 0 C1.67 2.64 1.34 5.28 1 8 C0.34 8 -0.32 8 -1 8 C-0.67 5.36 -0.34 2.72 0 0 Z " fill="#835E48" transform="translate(1356,1040)"/>
<path d="M0 0 C0.99 0.495 0.99 0.495 2 1 C2.4140625 3.06640625 2.4140625 3.06640625 2.625 5.5625 C2.69976563 6.38878906 2.77453125 7.21507812 2.8515625 8.06640625 C2.92503906 9.02353516 2.92503906 9.02353516 3 10 C1.51171875 8.73046875 1.51171875 8.73046875 0 7 C-0.1875 3.3125 -0.1875 3.3125 0 0 Z " fill="#6B8B5E" transform="translate(1034,944)"/>
<path d="M0 0 C0.66 0.33 1.32 0.66 2 1 C-0.475 4.465 -0.475 4.465 -3 8 C-4 5 -4 5 -3.1875 2.875 C-2 1 -2 1 0 0 Z " fill="#8C6A55" transform="translate(1306,1148)"/>
<path d="M0 0 C2.55028983 1.27514492 2.93081711 2.40341297 4 5 C4 5.99 4 6.98 4 8 C4.66 8.33 5.32 8.66 6 9 C5.01 9 4.02 9 3 9 C0 3.375 0 3.375 0 0 Z " fill="#6F7C45" transform="translate(1015,1113)"/>
<path d="M0 0 C0.33 0 0.66 0 1 0 C1.17942163 3.94727588 1.09350689 6.5980513 -1 10 C-1.66 10 -2.32 10 -3 10 C-2.01 6.7 -1.02 3.4 0 0 Z " fill="#8E6D5A" transform="translate(1317,1062)"/>
<path d="M0 0 C0.99 0.33 1.98 0.66 3 1 C1.02 2.98 -0.96 4.96 -3 7 C-3.66 6.67 -4.32 6.34 -5 6 C-3.35 4.02 -1.7 2.04 0 0 Z " fill="#F6EEE4" transform="translate(1117,1021)"/>
<path d="M0 0 C0.33 0 0.66 0 1 0 C2.7578125 5.95703125 2.7578125 5.95703125 3 8 C2.34 8.99 1.68 9.98 1 11 C0 10 0 10 -0.09765625 7.71484375 C-0.08605469 6.79832031 -0.07445312 5.88179687 -0.0625 4.9375 C-0.05347656 4.01839844 -0.04445313 3.09929688 -0.03515625 2.15234375 C-0.02355469 1.44207031 -0.01195312 0.73179687 0 0 Z " fill="#90705D" transform="translate(1333,988)"/>
</svg>
