<?xml version="1.0" encoding="UTF-8"?>
<svg version="1.1" xmlns="http://www.w3.org/2000/svg" width="1169" height="1092">
<path d="M0 0 C385.77 0 771.54 0 1169 0 C1169 360.36 1169 720.72 1169 1092 C783.23 1092 397.46 1092 0 1092 C0 731.64 0 371.28 0 0 Z " fill="#FEFEFE" transform="translate(0,0)"/>
<path d="M0 0 C1.21171875 -0.01417969 2.4234375 -0.02835938 3.671875 -0.04296875 C9.22013423 0.11744444 14.66752334 1.01529355 20.14538574 1.86325073 C22.39302645 2.2095355 24.64216357 2.54474872 26.89160156 2.87915039 C47.63302431 5.98706311 67.77579532 9.34707064 87.63476562 16.28710938 C91.59929292 17.65204372 95.61139227 18.85145767 99.625 20.0625 C105.77835671 21.94671844 105.77835671 21.94671844 108.29296875 23.23046875 C111.74513672 24.91865468 115.54254822 25.48231155 119.27734375 26.30859375 C122.33897867 27.21380776 124.57761809 28.46599934 127.25 30.1875 C134.29073409 33.42623768 141.68492037 36.45125222 149.25 38.1875 C149.25 38.8475 149.25 39.5075 149.25 40.1875 C153.21 41.1775 153.21 41.1775 157.25 42.1875 C157.25 42.8475 157.25 43.5075 157.25 44.1875 C160.22 45.1775 160.22 45.1775 163.25 46.1875 C163.25 46.8475 163.25 47.5075 163.25 48.1875 C164.11496094 48.45046875 164.97992188 48.7134375 165.87109375 48.984375 C185.91611629 56.12179343 204.8495278 71.96840417 221.25 85.1875 C221.83813477 85.65849121 222.42626953 86.12948242 223.03222656 86.61474609 C232.27616166 94.09830532 240.70034108 102.43527444 249.125 110.8125 C249.65947754 111.34161987 250.19395508 111.87073975 250.74462891 112.41589355 C257.71782029 119.33599774 264.16437619 126.45811811 270.25 134.1875 C271.41118129 135.62392192 272.57262107 137.06013494 273.734375 138.49609375 C286.17611791 154.13243932 296.75945171 170.67519547 306.20361328 188.27197266 C307.215166 190.12373248 308.27116589 191.94248816 309.33984375 193.76171875 C311.24033435 197.17016509 312.76034872 200.58286255 314.25 204.1875 C314.79540784 205.41977878 315.34499596 206.6502146 315.8984375 207.87890625 C319.3100912 215.50933471 322.40987443 223.13387865 325.13671875 231.0390625 C326.08648266 233.72506149 327.12902778 236.32040949 328.25 238.9375 C343.85524054 277.63849655 346.48895032 320.18022245 346.85089111 361.32794189 C346.89146798 365.72000211 346.94231005 370.11194355 346.9921875 374.50390625 C347.08794969 383.06502185 347.17266031 391.62619821 347.25 400.1875 C347.51234436 399.70539566 347.77468872 399.22329132 348.04498291 398.72657776 C353.37427159 388.96064391 358.77880645 379.35691429 365 370.125 C365.67828857 369.11405273 366.35657715 368.10310547 367.05541992 367.06152344 C373.24888816 357.9613291 379.97708132 349.44306278 387.25 341.1875 C387.72743652 340.6423877 388.20487305 340.09727539 388.69677734 339.53564453 C402.535608 323.83266795 417.62246372 309.87171504 434.25 297.1875 C434.92853027 296.66849121 435.60706055 296.14948242 436.30615234 295.61474609 C455.34507357 281.16277422 476.22680971 269.93968738 498 260.1875 C499.00220581 259.73250122 499.00220581 259.73250122 500.0246582 259.26831055 C503.40568251 257.78772559 505.48553135 257.1875 509.25 257.1875 C509.25 256.5275 509.25 255.8675 509.25 255.1875 C546.32236817 243.88170216 581.92565016 236.97099052 620.74755859 237.05712891 C623.64295591 237.06253352 626.53820082 237.05712117 629.43359375 237.05078125 C658.35997157 237.03454429 658.35997157 237.03454429 666.25 244.1875 C669.98947375 248.6557807 670.37728608 252.10678968 670.39526367 257.85180664 C670.40030159 258.86247948 670.40030159 258.86247948 670.40544128 259.89356995 C670.41495881 262.12828409 670.41689624 264.36292307 670.41796875 266.59765625 C670.42118592 268.16450531 670.42455033 269.73135407 670.42805481 271.29820251 C670.43405168 274.59439791 670.43589465 277.89056711 670.43530273 281.18676758 C670.43520225 285.35847316 670.44873206 289.53000412 670.46607494 293.70166874 C670.47735186 296.94759345 670.47921705 300.19347843 670.47869301 303.4394207 C670.4798544 304.97360257 670.48416921 306.50778612 670.49202538 308.04194832 C670.56185614 323.11589083 669.00245472 337.88223914 666.5 352.75 C666.33298584 353.74322266 666.16597168 354.73644531 665.99389648 355.75976562 C662.5567851 375.44265899 658.33107676 396.16224388 649.60546875 414.2578125 C648.29234492 417.09597639 647.14732633 419.97413016 646.01635742 422.88867188 C634.56405778 452.06083307 615.74838912 480.42449976 594.25 503.1875 C593.16174193 504.45411866 592.07831815 505.72490846 591 507 C582.56182081 516.64921416 573.31144477 525.25989184 563.25 533.1875 C562.14235561 534.10545401 561.03700262 535.02617784 559.93359375 535.94921875 C536.40833826 555.4733386 508.96365667 570.76150715 480.25 581.1875 C479.03957031 581.65800781 477.82914063 582.12851562 476.58203125 582.61328125 C464.81654739 587.09460647 452.72260965 589.81789705 440.43603516 592.48071289 C438.29041106 592.95669617 436.14936226 593.45373512 434.01318359 593.97045898 C426.49349311 595.78919318 419.0705422 597.07885306 411.375 597.875 C409.53107666 598.06606323 409.53107666 598.06606323 407.64990234 598.26098633 C387.61335967 600.14019117 367.32646494 599.3615734 347.25 599.1875 C347.25 626.5775 347.25 653.9675 347.25 682.1875 C354.17548828 682.16131592 361.10097656 682.13513184 368.23632812 682.1081543 C390.4053122 682.02787323 412.57430815 681.97227435 434.74339953 681.93217335 C438.18798287 681.92591996 441.63256576 681.91944833 445.07714844 681.9128418 C445.76289135 681.91153024 446.44863427 681.91021869 447.15515727 681.9088674 C458.25284756 681.88712175 469.3504081 681.84770493 480.44802147 681.80173602 C491.83858306 681.7549478 503.22904859 681.72757381 514.61971235 681.71705753 C521.01630345 681.71053805 527.41260044 681.69521102 533.80909729 681.65884972 C539.83044321 681.62489847 545.85137401 681.61444554 551.87280655 681.62196159 C554.0818978 681.62058669 556.291003 681.61064941 558.50001144 681.59147263 C561.51927396 681.56654879 564.53697482 681.57259305 567.55627441 681.58622742 C568.42788979 681.57166321 569.29950517 681.557099 570.19753313 681.54209346 C576.38523959 681.6174813 580.42651988 683.31038672 585.25 687.1875 C588.73800759 690.84990797 589.53448195 693.70175945 589.75 698.625 C589.53962297 703.95696956 588.50482518 706.96502409 585.25 711.1875 C582.26481593 713.44459039 581.00081172 714.1875 577.25 714.1875 C577.25 714.8475 577.25 715.5075 577.25 716.1875 C531.60120424 716.23885286 485.95240557 716.28661501 440.30358887 716.31452942 C439.6280193 716.31494359 438.95244974 716.31535776 438.25640837 716.31578448 C423.5746169 716.32476311 408.89282513 716.33307367 394.2110329 716.34069599 C387.01113124 716.34443801 379.81122966 716.34832767 372.61132812 716.35229492 C371.53661049 716.35288334 371.53661049 716.35288334 370.4401814 716.35348364 C347.21521939 716.36626868 323.99027927 716.38880335 300.76533053 716.41639166 C276.89955239 716.44468972 253.03378637 716.4631564 229.16799173 716.46924497 C225.79745487 716.47010944 222.42691804 716.47108635 219.05638123 716.47213173 C218.39300838 716.472334 217.72963553 716.47253627 217.04616048 716.47274467 C205.706592 716.47650927 194.3670721 716.49247809 183.02752012 716.5112494 C172.95051014 716.52708298 162.87353275 716.53190575 152.79651123 716.52800413 C146.97891153 716.52607889 141.1614218 716.52907135 135.34384155 716.54511642 C130.01908086 716.5596953 124.69450428 716.56046535 119.36973518 716.55019668 C117.44228023 716.54892719 115.51481387 716.55274969 113.58738142 716.56214955 C110.96826921 716.57418108 108.34982248 716.56770443 105.73072052 716.55664349 C104.98165082 716.56452453 104.23258111 716.57240557 103.46081233 716.58052543 C97.47870455 716.52340136 91.99776295 715.31496572 87.15625 711.56640625 C83.23815141 706.5055289 82.44786517 702.33331519 82.79296875 695.9609375 C83.64088871 690.81544028 86.07351624 688.22392617 89.875 684.875 C94.18308879 681.81398954 97.66567235 682.04955789 102.80459595 682.06724548 C103.70060276 682.06639106 104.59660958 682.06553663 105.51976812 682.06465632 C108.54005417 682.06300138 111.56028542 682.06852314 114.58056641 682.07397461 C116.73846943 682.0742565 118.89637255 682.0740987 121.05427551 682.0735321 C126.92794504 682.07324422 132.80159431 682.07913952 138.67525911 682.08610606 C144.80786824 682.09234107 150.94047779 682.09294352 157.0730896 682.09413147 C168.69300637 682.09724435 180.31291377 682.10545716 191.9328264 682.11548096 C205.1587384 682.12664343 218.38465084 682.13215289 231.61056638 682.13717639 C258.82371731 682.1476398 286.0368554 682.16598475 313.25 682.1875 C313.25 653.4775 313.25 624.7675 313.25 595.1875 C309.95 595.1875 306.65 595.1875 303.25 595.1875 C300.75592072 594.86023843 298.26986116 594.46127641 295.80078125 593.98046875 C295.14023239 593.8544075 294.47968353 593.72834625 293.79911804 593.59846497 C291.71847039 593.19924446 289.64057012 592.78740239 287.5625 592.375 C286.19352067 592.11049196 284.8243803 591.846816 283.45507812 591.58398438 C280.0550619 590.9289112 276.65815867 590.25903984 273.26196289 589.58447266 C271.263035 589.19007189 269.26263444 588.80409769 267.26171875 588.41992188 C259.95290725 586.99876408 252.7710089 585.40503555 245.625 583.3125 C244.27764771 582.92288086 244.27764771 582.92288086 242.90307617 582.52539062 C237.00122727 580.78677087 231.27332911 578.78811077 225.5703125 576.47265625 C220.67971784 574.57970843 215.69216925 572.99183931 210.69067383 571.41796875 C206.23582105 569.98043642 202.18157936 568.21740157 198.02954102 566.05981445 C195.8631846 564.99788669 193.71819364 564.37194762 191.375 563.8125 C186.56847842 562.46874128 182.77002424 560.27045101 178.57421875 557.609375 C175.56293155 555.76717577 172.52427649 554.49721059 169.25 553.1875 C167.90986503 552.53461373 166.57258472 551.87524405 165.25 551.1875 C165.25 550.5275 165.25 549.8675 165.25 549.1875 C164.095 548.89875 162.94 548.61 161.75 548.3125 C135.5951712 539.5261122 109.59686928 515.14110348 90.25 496.1875 C89.44175781 495.39972168 88.63351562 494.61194336 87.80078125 493.80029297 C69.69668725 476.10550303 69.69668725 476.10550303 63.3515625 467.90234375 C61.74159783 465.82255668 60.1028578 463.81640041 58.3984375 461.81640625 C22.09810468 418.90987427 0.37818502 367.58324186 -11.75 313.1875 C-11.91483887 312.4661084 -12.07967773 311.7447168 -12.24951172 311.00146484 C-17.37664968 288.23789508 -18.20278843 264.63838426 -18.15405273 241.39868164 C-18.15977725 238.87214867 -18.16674938 236.34561827 -18.17485046 233.8190918 C-18.19072249 227.75768565 -18.19293717 221.69642061 -18.18763756 215.63500024 C-18.1835542 210.70962801 -18.18508791 205.78428617 -18.19038582 200.85891533 C-18.19113424 200.15130903 -18.19188266 199.44370274 -18.19265376 198.71465383 C-18.19418552 197.2763437 -18.19572387 195.83803358 -18.19726873 194.39972346 C-18.2108904 181.01729879 -18.20562332 167.63493316 -18.19408352 154.25250994 C-18.18409998 142.02044793 -18.19719786 129.78853607 -18.22101771 117.55649716 C-18.24539454 104.94233603 -18.25502389 92.32824493 -18.24836498 79.71406072 C-18.24487756 72.65294242 -18.24707665 65.59194028 -18.26461601 58.53083992 C-18.28085219 51.91408483 -18.2761803 45.29757262 -18.25731087 38.68080902 C-18.25361598 36.2531814 -18.25675949 33.82553242 -18.26719666 31.39792442 C-18.28034233 28.08847751 -18.26891639 24.78000101 -18.25120544 21.47059631 C-18.26081045 20.50788112 -18.27041546 19.54516593 -18.28031152 18.55327755 C-18.21815628 12.9212527 -17.54346481 9.63747798 -13.75 5.1875 C-8.90194856 0.91659754 -6.44074267 0.03340634 0 0 Z " fill="#926346" transform="translate(242.75,179.8125)"/>
<path d="M0 0 C3.49439791 0.45289015 6.98750232 0.91511507 10.48046875 1.37890625 C11.46011597 1.50575806 12.43976318 1.63260986 13.44909668 1.76330566 C21.16624784 2.79494151 28.50817912 4.43053562 36.02294922 6.47949219 C40.28528469 7.60165806 44.59264894 8.54778991 48.8918457 9.51733398 C53.46476912 10.57140668 57.94206773 11.84558524 62.4296875 13.21704102 C64.95911038 13.98754436 67.49520672 14.72986808 70.03515625 15.46484375 C71.7109375 15.95572917 73.38671875 16.44661458 75.0625 16.9375 C75.89587891 17.17662109 76.72925781 17.41574219 77.58789062 17.66210938 C82.59023189 19.13750808 87.26645637 20.92566045 92.0012207 23.10961914 C94.46816548 24.20855008 96.97191742 24.99328735 99.5625 25.75 C106.63337371 28.05958187 113.08271398 31.35749441 119.65234375 34.79003906 C122.14913848 36.07686463 124.66597798 37.31706821 127.1875 38.5546875 C138.37280605 44.11973222 148.93834781 50.31333376 159.3125 57.25 C159.8762735 57.62582214 160.440047 58.00164429 161.02090454 58.38885498 C168.30232108 63.26338437 175.23707288 68.43199976 182 74 C182.97710937 74.77988281 183.95421875 75.55976563 184.9609375 76.36328125 C190.41697568 80.76872308 195.65439833 85.34681252 200.78930664 90.11767578 C203.40787499 92.55021623 206.05336792 94.91599976 208.8125 97.1875 C211.91458714 99.81119298 214.51578245 102.73680763 217.140625 105.83203125 C219.07860823 108.09165455 221.09736385 110.25816114 223.125 112.4375 C257.78024778 150.97601833 281.23417992 199.75320935 291.6875 250.3125 C291.97330933 251.67773804 291.97330933 251.67773804 292.26489258 253.07055664 C296.37695649 274.06164678 297.50345897 294.90557837 297.6875 316.25 C297.71108681 318.26512138 297.73676614 320.2802087 297.76267529 322.29530144 C298.09803591 348.52874077 298.10986186 374.7649874 298 401 C294.8706406 399.4353203 294.06675816 396.29792413 292.625 393.25 C284.98384702 377.57551863 276.05588907 362.62248512 266.40185547 348.11230469 C264.94554853 345.91795295 263.50520104 343.71367989 262.06640625 341.5078125 C255.83126456 331.99390767 249.26647935 322.81007468 242.35351562 313.77832031 C240.39561532 311.20592748 238.48299798 308.6003823 236.5625 306 C231.40527832 299.12058452 225.95695616 292.48209377 220.50439453 285.83642578 C219.19454414 284.2374815 217.8915859 282.63289606 216.58984375 281.02734375 C206.23603885 268.26829923 195.43369113 255.86706184 184.40625 243.6875 C182.47965585 241.53571952 180.57798313 239.36741822 178.68359375 237.1875 C175.0625076 233.04244998 171.33372839 229.00838811 167.5625 225 C166.90507812 224.29939453 166.24765625 223.59878906 165.5703125 222.87695312 C161.72300202 218.78966189 157.81992727 214.77595237 153.81274414 210.84472656 C152.12218095 209.1243366 150.55944971 207.35454242 149 205.515625 C144.55118093 200.40301388 139.81042244 195.58860464 135.02978516 190.78955078 C133.49564906 189.24562128 131.97252625 187.69132374 130.44921875 186.13671875 C122.51900713 177.77223021 122.51900713 177.77223021 112.12109375 173.46875 C106.28273287 173.53673674 102.48135578 173.85474591 98 178 C94.11173151 183.48105318 94.03017395 188.47875585 95 195 C97.8828671 202.63706898 105.00899912 207.90375106 110.9375 213.19921875 C114.3008307 216.22520333 117.13928012 219.49561815 120 223 C121.65334198 224.67988567 123.32164911 226.34510004 125 228 C125.84739746 228.84216064 126.69479492 229.68432129 127.56787109 230.55200195 C128.46070801 231.43847412 129.35354492 232.32494629 130.2734375 233.23828125 C131.78913247 234.7465923 133.30434063 236.2553905 134.81933594 237.7644043 C135.8519611 238.7920057 136.88548268 239.81870714 137.91992188 240.84448242 C143.83827419 246.71477169 149.59093347 252.65042809 155 259 C156.45445517 260.60768373 157.91220895 262.21239715 159.375 263.8125 C162.48528851 267.25378205 165.46478312 270.76321298 168.375 274.375 C171.61955126 278.38829511 174.98776239 282.22385811 178.5 286 C182.69624941 290.52137204 186.69220866 295.15779968 190.55859375 299.96484375 C192.39005737 302.24171933 194.23569658 304.50222092 196.09765625 306.75390625 C202.15046552 314.09519366 207.95751471 321.51555035 213.390625 329.328125 C215.54924325 332.41664388 217.8259106 335.40516987 220.109375 338.40234375 C225.19277508 345.15888108 229.90930403 352.13687926 234.58398438 359.18041992 C235.99355498 361.30279579 237.41044307 363.42014554 238.828125 365.53710938 C269.70502701 411.81235991 299.42543624 469.74497762 298 527 C287.00133817 526.03698353 276.16040258 524.70531 265.48046875 521.8515625 C260.07090422 520.52801024 254.59568223 519.52750504 249.11669922 518.53369141 C244.01018478 517.56346372 239.73016463 516.13983638 235 514 C232.94866503 513.37854294 230.88523209 512.79586236 228.8125 512.25 C215.23849177 508.46897956 201.88713211 503.69765813 189 498 C188.34765381 497.71833984 187.69530762 497.43667969 187.02319336 497.14648438 C172.28671886 490.72119404 158.17901485 482.91057003 144.72558594 474.12597656 C143.1394333 473.09098279 141.54283879 472.072038 139.9453125 471.0546875 C128.01100595 463.32487919 116.52247889 454.64118641 106.10546875 444.95703125 C104.19608256 443.18225856 102.24079432 441.49444992 100.25 439.8125 C91.1447305 431.8523151 82.61037689 423.17136777 75.12109375 413.67578125 C72.92337786 410.9033404 70.62369053 408.240784 68.3125 405.5625 C57.60064291 392.71494555 48.10543039 378.63061991 40 364 C39.54415527 363.17725586 39.08831055 362.35451172 38.61865234 361.50683594 C22.2462171 331.65344 11.59024616 301.33250467 5 268 C4.85274359 267.30993563 4.70548718 266.61987126 4.55376846 265.90889585 C0.5283552 246.70213666 -0.44482997 227.31771151 -0.34057617 207.75146484 C-0.33972668 205.46194469 -0.34021129 203.17242373 -0.34190369 200.88290405 C-0.34275252 194.76059751 -0.32531025 188.63847299 -0.30418181 182.51620817 C-0.2852263 176.08345724 -0.28364989 169.65070058 -0.28010559 163.21792603 C-0.27188778 152.45107562 -0.25324339 141.68429862 -0.22631836 130.91748047 C-0.1986523 119.84261393 -0.17748073 108.76776535 -0.16479492 97.69287109 C-0.16400675 97.00671893 -0.16321858 96.32056677 -0.16240653 95.61362211 C-0.15849055 92.17035419 -0.15469963 88.72708614 -0.15097082 85.28381801 C-0.12002441 56.85583457 -0.06709398 28.42791987 0 0 Z " fill="#AECB91" transform="translate(258,215)"/>
<path d="M0 0 C2.21678761 0.01510007 4.43358536 0.0287789 6.65039062 0.04101562 C11.99632135 0.0735395 17.34186046 0.12330167 22.6875 0.1875 C23.17775557 46.52419344 19.85404073 90.91538118 1.6875 134.1875 C1.20627686 135.35200684 1.20627686 135.35200684 0.71533203 136.54003906 C-8.53866941 158.78912125 -20.89123254 178.9302765 -36.05126953 197.61767578 C-37.16857614 199.00836132 -38.25650963 200.4225338 -39.33984375 201.83984375 C-49.83925179 215.3331424 -62.6181058 227.95255355 -76.3125 238.1875 C-76.99248047 238.70618652 -77.67246094 239.22487305 -78.37304688 239.75927734 C-88.64576844 247.59037286 -98.99616973 254.94666198 -110.3125 261.1875 C-111.10382324 261.62690918 -111.89514648 262.06631836 -112.71044922 262.51904297 C-123.95988795 268.71832469 -135.26188268 274.12445413 -147.35009766 278.4765625 C-149.26706705 279.17104059 -151.17024733 279.89575689 -153.07421875 280.625 C-162.9375742 284.29623307 -172.56336622 287.03557263 -182.9375 288.875 C-185.24264158 289.29307695 -187.54735495 289.7135242 -189.8515625 290.13671875 C-190.85396973 290.31549561 -191.85637695 290.49427246 -192.88916016 290.6784668 C-195.30808479 291.07954383 -195.30808479 291.07954383 -197.3125 292.1875 C-212.0027254 294.96315284 -226.91041799 295.47666887 -241.8125 295.4375 C-242.56103241 295.43654327 -243.30956482 295.43558655 -244.08078003 295.43460083 C-252.21692862 295.41037048 -260.22287468 295.0808787 -268.3125 294.1875 C-268.38995076 287.32722397 -268.44167138 280.46706451 -268.47729492 273.60644531 C-268.49217957 271.28316029 -268.5124938 268.95990231 -268.53881836 266.63671875 C-268.75213077 247.29639339 -267.49958535 228.58888247 -262.875 209.75 C-262.6589209 208.84080811 -262.4428418 207.93161621 -262.22021484 206.99487305 C-261.59576347 204.38945914 -260.95541479 201.78840631 -260.3125 199.1875 C-259.99086034 197.83854764 -259.66924348 196.48958985 -259.34765625 195.140625 C-255.43974069 179.50896275 -249.49216827 164.58610873 -242.3125 150.1875 C-241.96912598 149.48222168 -241.62575195 148.77694336 -241.27197266 148.05029297 C-231.81906486 128.7192018 -219.81483201 111.07635988 -205.3125 95.1875 C-204.51199219 94.2903125 -203.71148438 93.393125 -202.88671875 92.46875 C-201.41857423 90.82564525 -199.94367873 89.18853853 -198.4609375 87.55859375 C-196.9735289 85.91703553 -195.50044457 84.26242655 -194.0390625 82.59765625 C-190.01977702 78.0365217 -185.96001446 73.79198586 -181.30859375 69.875 C-179.27655906 68.15711549 -177.3318101 66.36531928 -175.375 64.5625 C-139.95559684 33.1528406 -95.32397912 11.31002702 -48.58039856 3.565979 C-47.0829827 3.31608226 -45.5865105 3.0604552 -44.09111023 2.79876709 C-29.32710965 0.24193104 -14.9575961 -0.18029397 0 0 Z " fill="#E2E8E1" transform="translate(858.3125,450.8125)"/>
<path d="M0 0 C1.21171875 -0.01417969 2.4234375 -0.02835938 3.671875 -0.04296875 C9.22013423 0.11744444 14.66752334 1.01529355 20.14538574 1.86325073 C22.39302645 2.2095355 24.64216357 2.54474872 26.89160156 2.87915039 C47.63302431 5.98706311 67.77579532 9.34707064 87.63476562 16.28710938 C91.59929292 17.65204372 95.61139227 18.85145767 99.625 20.0625 C105.77835671 21.94671844 105.77835671 21.94671844 108.29296875 23.23046875 C111.74513672 24.91865468 115.54254822 25.48231155 119.27734375 26.30859375 C122.33897867 27.21380776 124.57761809 28.46599934 127.25 30.1875 C134.29073409 33.42623768 141.68492037 36.45125222 149.25 38.1875 C149.25 38.8475 149.25 39.5075 149.25 40.1875 C153.21 41.1775 153.21 41.1775 157.25 42.1875 C157.25 42.8475 157.25 43.5075 157.25 44.1875 C160.22 45.1775 160.22 45.1775 163.25 46.1875 C163.25 46.8475 163.25 47.5075 163.25 48.1875 C164.11496094 48.45046875 164.97992188 48.7134375 165.87109375 48.984375 C185.91611629 56.12179343 204.8495278 71.96840417 221.25 85.1875 C221.83813477 85.65849121 222.42626953 86.12948242 223.03222656 86.61474609 C232.27616166 94.09830532 240.70034108 102.43527444 249.125 110.8125 C249.65947754 111.34161987 250.19395508 111.87073975 250.74462891 112.41589355 C257.71782029 119.33599774 264.16437619 126.45811811 270.25 134.1875 C271.41118129 135.62392192 272.57262107 137.06013494 273.734375 138.49609375 C286.17611791 154.13243932 296.75945171 170.67519547 306.20361328 188.27197266 C307.215166 190.12373248 308.27116589 191.94248816 309.33984375 193.76171875 C311.24033435 197.17016509 312.76034872 200.58286255 314.25 204.1875 C314.79540784 205.41977878 315.34499596 206.6502146 315.8984375 207.87890625 C319.3100912 215.50933471 322.40987443 223.13387865 325.13671875 231.0390625 C326.08648266 233.72506149 327.12902778 236.32040949 328.25 238.9375 C341.4043348 271.56025031 346.41619933 309.23404747 346.6640625 344.203125 C346.68285041 345.92332812 346.70242891 347.64352277 346.7227478 349.3637085 C346.77327246 353.81529656 346.81331498 358.26691427 346.85089111 362.71862793 C346.89144123 367.29165484 346.94229603 371.86456715 346.9921875 376.4375 C347.08799846 385.35408523 347.17269481 394.27073641 347.25 403.1875 C346.59 403.5175 345.93 403.8475 345.25 404.1875 C344.13365848 405.83801288 344.13365848 405.83801288 343.125 407.75 C342.50625 408.884375 341.8875 410.01875 341.25 411.1875 C340.59 411.1875 339.93 411.1875 339.25 411.1875 C339.05664062 411.77917969 338.86328125 412.37085938 338.6640625 412.98046875 C335.14580093 423.65717341 335.14580093 423.65717341 332.75 427.75 C331.34742262 430.96423982 330.81838347 433.37875996 330.3125 436.8125 C329.36642942 443.11175331 328.00662277 449.40938323 325.25 455.1875 C324.26 455.5175 323.27 455.8475 322.25 456.1875 C321.2697729 453.75042162 320.29077829 451.31286055 319.3125 448.875 C319.03470703 448.18470703 318.75691406 447.49441406 318.47070312 446.78320312 C317.32859872 443.93482227 316.22069769 441.09959306 315.25 438.1875 C314.26 437.8575 313.27 437.5275 312.25 437.1875 C312.25523682 435.90665527 312.26047363 434.62581055 312.26586914 433.30615234 C312.32593391 416.93310731 312.3145205 400.56052129 312.25 384.1875 C312.24618946 383.18731464 312.24618946 383.18731464 312.24230194 382.16692352 C312.20753038 373.34833133 312.14234005 364.53054927 312.04147339 355.71246338 C312.01431911 353.11808092 311.99334908 350.52362459 311.97927856 347.92913818 C311.52611057 270.85789512 283.8969264 199.41787791 232.25 142.1875 C231.08210938 140.86492187 231.08210938 140.86492187 229.890625 139.515625 C224.95363292 133.98020964 219.93367558 128.93832189 214.25 124.1875 C213.1976206 123.27527794 212.14698902 122.36103747 211.09765625 121.4453125 C191.52521421 104.40146012 170.37816248 89.43756381 147.39111328 77.31982422 C145.15610534 76.13784396 142.93498631 74.93230361 140.71484375 73.72265625 C133.38225256 69.74808474 126.13358427 65.96261228 118.25 63.1875 C117.6209375 62.96497559 116.991875 62.74245117 116.34375 62.51318359 C113.39249009 61.46952803 110.44075599 60.42757529 107.48388672 59.39990234 C103.72165185 58.08764945 100.03285812 56.71007185 96.375 55.125 C89.3737001 52.25053105 81.92800941 50.64167866 74.60693359 48.79003906 C71.18657471 47.91564029 67.78202122 46.98751509 64.375 46.0625 C58.6935363 44.54089849 52.99248479 43.16956044 47.25 41.8984375 C45.14433556 41.3994389 43.05558859 40.82603339 40.984375 40.19921875 C36.51950495 38.98959391 32.07187326 38.29276201 27.5 37.625 C25.81735854 37.37605077 24.13504917 37.12484376 22.453125 36.87109375 C21.71739258 36.76337646 20.98166016 36.65565918 20.22363281 36.54467773 C18.25 36.1875 18.25 36.1875 15.25 35.1875 C15.30934282 64.30041773 15.38384938 93.4132647 15.47898628 122.52608814 C15.49025196 125.97751544 15.50139082 129.42894313 15.51245117 132.88037109 C15.51465486 133.56737365 15.51685854 134.25437621 15.519129 134.96219702 C15.55432418 146.02824705 15.57928802 157.09429703 15.60034702 168.16038196 C15.62225188 179.54882008 15.65565403 190.93717314 15.69870156 202.32555354 C15.72247398 208.70806886 15.74130677 215.09050597 15.74761391 221.47306442 C15.75373796 227.50265614 15.77399573 233.53204818 15.80427551 239.5615654 C15.81294015 241.75338342 15.81680297 243.94522766 15.81500816 246.13706207 C15.80324999 267.15600924 17.7451453 287.97248884 22.0625 308.5625 C22.32111816 309.81869141 22.57973633 311.07488281 22.84619141 312.36914062 C25.06493936 322.85678996 27.81768048 333.03752256 31.25 343.1875 C31.51973633 344.01491699 31.78947266 344.84233398 32.06738281 345.69482422 C45.01383984 385.18375801 67.08232643 422.40897079 95.21875 452.97265625 C97.02841988 454.94589244 98.76839891 456.95857813 100.5 459 C108.9388411 468.64997107 118.19229305 477.25259874 128.25 485.1875 C130.10566509 486.72736273 131.95982688 488.26903881 133.8125 489.8125 C138.79227794 493.87920159 143.92369814 497.59130186 149.25 501.1875 C150.31347656 501.92484375 151.37695312 502.6621875 152.47265625 503.421875 C183.20791548 524.54034474 217.36127049 539.21964481 253.109375 549.546875 C254.76733317 550.04305226 256.4078306 550.59776771 258.0390625 551.17578125 C261.61314144 552.30192048 265.19090695 552.99102435 268.875 553.625 C273.66202047 554.48000035 278.36324763 555.4215519 283.0625 556.6875 C290.64095526 558.67084228 298.38649432 559.71459537 306.12866211 560.84619141 C308.51350994 561.22989693 310.88138934 561.71377787 313.25 562.1875 C313.25 573.0775 313.25 583.9675 313.25 595.1875 C306.70479113 595.1875 301.9503842 595.17799022 295.80078125 593.98046875 C295.14023239 593.8544075 294.47968353 593.72834625 293.79911804 593.59846497 C291.71847039 593.19924446 289.64057012 592.78740239 287.5625 592.375 C286.19352067 592.11049196 284.8243803 591.846816 283.45507812 591.58398438 C280.0550619 590.9289112 276.65815867 590.25903984 273.26196289 589.58447266 C271.263035 589.19007189 269.26263444 588.80409769 267.26171875 588.41992188 C259.95290725 586.99876408 252.7710089 585.40503555 245.625 583.3125 C244.27764771 582.92288086 244.27764771 582.92288086 242.90307617 582.52539062 C237.00122727 580.78677087 231.27332911 578.78811077 225.5703125 576.47265625 C220.67971784 574.57970843 215.69216925 572.99183931 210.69067383 571.41796875 C206.23582105 569.98043642 202.18157936 568.21740157 198.02954102 566.05981445 C195.8631846 564.99788669 193.71819364 564.37194762 191.375 563.8125 C186.56847842 562.46874128 182.77002424 560.27045101 178.57421875 557.609375 C175.56293155 555.76717577 172.52427649 554.49721059 169.25 553.1875 C167.90986503 552.53461373 166.57258472 551.87524405 165.25 551.1875 C165.25 550.5275 165.25 549.8675 165.25 549.1875 C164.095 548.89875 162.94 548.61 161.75 548.3125 C135.5951712 539.5261122 109.59686928 515.14110348 90.25 496.1875 C89.44175781 495.39972168 88.63351562 494.61194336 87.80078125 493.80029297 C69.69668725 476.10550303 69.69668725 476.10550303 63.3515625 467.90234375 C61.74159783 465.82255668 60.1028578 463.81640041 58.3984375 461.81640625 C22.09810468 418.90987427 0.37818502 367.58324186 -11.75 313.1875 C-11.91483887 312.4661084 -12.07967773 311.7447168 -12.24951172 311.00146484 C-17.37664968 288.23789508 -18.20278843 264.63838426 -18.15405273 241.39868164 C-18.15977725 238.87214867 -18.16674938 236.34561827 -18.17485046 233.8190918 C-18.19072249 227.75768565 -18.19293717 221.69642061 -18.18763756 215.63500024 C-18.1835542 210.70962801 -18.18508791 205.78428617 -18.19038582 200.85891533 C-18.19113424 200.15130903 -18.19188266 199.44370274 -18.19265376 198.71465383 C-18.19418552 197.2763437 -18.19572387 195.83803358 -18.19726873 194.39972346 C-18.2108904 181.01729879 -18.20562332 167.63493316 -18.19408352 154.25250994 C-18.18409998 142.02044793 -18.19719786 129.78853607 -18.22101771 117.55649716 C-18.24539454 104.94233603 -18.25502389 92.32824493 -18.24836498 79.71406072 C-18.24487756 72.65294242 -18.24707665 65.59194028 -18.26461601 58.53083992 C-18.28085219 51.91408483 -18.2761803 45.29757262 -18.25731087 38.68080902 C-18.25361598 36.2531814 -18.25675949 33.82553242 -18.26719666 31.39792442 C-18.28034233 28.08847751 -18.26891639 24.78000101 -18.25120544 21.47059631 C-18.26081045 20.50788112 -18.27041546 19.54516593 -18.28031152 18.55327755 C-18.21815628 12.9212527 -17.54346481 9.63747798 -13.75 5.1875 C-8.90194856 0.91659754 -6.44074267 0.03340634 0 0 Z " fill="#618E4E" transform="translate(242.75,179.8125)"/>
<path d="M0 0 C2.21678761 0.01510007 4.43358536 0.0287789 6.65039062 0.04101562 C11.99632135 0.0735395 17.34186046 0.12330167 22.6875 0.1875 C23.17775557 46.52419344 19.85404073 90.91538118 1.6875 134.1875 C1.20627686 135.35200684 1.20627686 135.35200684 0.71533203 136.54003906 C-8.53866941 158.78912125 -20.89123254 178.9302765 -36.05126953 197.61767578 C-37.16857614 199.00836132 -38.25650963 200.4225338 -39.33984375 201.83984375 C-49.83925179 215.3331424 -62.6181058 227.95255355 -76.3125 238.1875 C-76.99248047 238.70618652 -77.67246094 239.22487305 -78.37304688 239.75927734 C-88.64576844 247.59037286 -98.99616973 254.94666198 -110.3125 261.1875 C-111.10382324 261.62690918 -111.89514648 262.06631836 -112.71044922 262.51904297 C-123.95988795 268.71832469 -135.26188268 274.12445413 -147.35009766 278.4765625 C-149.26706705 279.17104059 -151.17024733 279.89575689 -153.07421875 280.625 C-162.9375742 284.29623307 -172.56336622 287.03557263 -182.9375 288.875 C-185.24264158 289.29307695 -187.54735495 289.7135242 -189.8515625 290.13671875 C-190.85396973 290.31549561 -191.85637695 290.49427246 -192.88916016 290.6784668 C-195.30808479 291.07954383 -195.30808479 291.07954383 -197.3125 292.1875 C-212.0027254 294.96315284 -226.91041799 295.47666887 -241.8125 295.4375 C-242.56103241 295.43654327 -243.30956482 295.43558655 -244.08078003 295.43460083 C-252.21692862 295.41037048 -260.22287468 295.0808787 -268.3125 294.1875 C-268.38995076 287.32722397 -268.44167138 280.46706451 -268.47729492 273.60644531 C-268.49217957 271.28316029 -268.5124938 268.95990231 -268.53881836 266.63671875 C-268.75213077 247.29639339 -267.49958535 228.58888247 -262.875 209.75 C-262.6589209 208.84080811 -262.4428418 207.93161621 -262.22021484 206.99487305 C-261.59576347 204.38945914 -260.95541479 201.78840631 -260.3125 199.1875 C-259.99086034 197.83854764 -259.66924348 196.48958985 -259.34765625 195.140625 C-255.43974069 179.50896275 -249.49216827 164.58610873 -242.3125 150.1875 C-241.96912598 149.48222168 -241.62575195 148.77694336 -241.27197266 148.05029297 C-231.81906486 128.7192018 -219.81483201 111.07635988 -205.3125 95.1875 C-204.51199219 94.2903125 -203.71148438 93.393125 -202.88671875 92.46875 C-201.41857423 90.82564525 -199.94367873 89.18853853 -198.4609375 87.55859375 C-196.9735289 85.91703553 -195.50044457 84.26242655 -194.0390625 82.59765625 C-190.01977702 78.0365217 -185.96001446 73.79198586 -181.30859375 69.875 C-179.27655906 68.15711549 -177.3318101 66.36531928 -175.375 64.5625 C-139.95559684 33.1528406 -95.32397912 11.31002702 -48.58039856 3.565979 C-47.0829827 3.31608226 -45.5865105 3.0604552 -44.09111023 2.79876709 C-29.32710965 0.24193104 -14.9575961 -0.18029397 0 0 Z M-53.25 36.125 C-53.99433289 36.16856628 -54.73866577 36.21213257 -55.5055542 36.25701904 C-67.25351138 35.88183298 -67.25351138 35.88183298 -77.3125 39.1875 C-79.26500863 39.51590359 -81.22513633 39.7993124 -83.1875 40.0625 C-89.39695507 40.96818847 -95.30840807 42.38266275 -101.3125 44.1875 C-101.3125 44.8475 -101.3125 45.5075 -101.3125 46.1875 C-102.4675 46.208125 -103.6225 46.22875 -104.8125 46.25 C-116.35630304 47.52254522 -128.122827 54.91897589 -138.3125 60.1875 C-138.3125 60.8475 -138.3125 61.5075 -138.3125 62.1875 C-139.03179688 62.28933594 -139.75109375 62.39117188 -140.4921875 62.49609375 C-152.63193413 65.47218122 -164.85808202 77.51580822 -173.765625 85.83203125 C-175.87671616 87.78446679 -178.02849944 89.61531876 -180.25 91.4375 C-190.81107042 100.68113628 -198.9469026 112.34464576 -206.3125 124.1875 C-207.28509766 125.74984375 -207.28509766 125.74984375 -208.27734375 127.34375 C-212.51108725 134.38454882 -216.03872894 141.6568721 -219.3125 149.1875 C-219.68246094 150.02925781 -220.05242188 150.87101562 -220.43359375 151.73828125 C-223.36371017 158.70443351 -225.31834922 165.90884967 -227.3125 173.1875 C-227.7146875 174.51007813 -227.7146875 174.51007813 -228.125 175.859375 C-229.87656863 181.73442813 -230.97303031 187.64258432 -231.9375 193.6875 C-232.06068604 194.45860107 -232.18387207 195.22970215 -232.31079102 196.02416992 C-233.82049262 205.93686857 -234.46224634 215.73821333 -234.41015625 225.76171875 C-234.4087413 226.81156448 -234.40732635 227.86141022 -234.40586853 228.94306946 C-234.4003288 232.25374357 -234.38778803 235.56434678 -234.375 238.875 C-234.36997719 241.13736881 -234.36541566 243.39973869 -234.36132812 245.66210938 C-234.35037921 251.17059658 -234.33370246 256.67904322 -234.3125 262.1875 C-191.88888403 262.76004303 -191.88888403 262.76004303 -150.3125 255.1875 C-150.3125 254.5275 -150.3125 253.8675 -150.3125 253.1875 C-149.095625 252.94 -147.87875 252.6925 -146.625 252.4375 C-136.60511796 250.18460199 -127.32415792 247.12891623 -118.3125 242.1875 C-117.40628906 241.70023438 -116.50007813 241.21296875 -115.56640625 240.7109375 C-112.80648265 239.21805234 -110.05733901 237.70794345 -107.3125 236.1875 C-106.29941772 235.64367676 -106.29941772 235.64367676 -105.26586914 235.08886719 C-99.89645447 232.17534793 -94.85141491 228.97775672 -89.875 225.4375 C-89.13999268 224.91744385 -88.40498535 224.3973877 -87.64770508 223.86157227 C-82.55156369 220.20368146 -77.84306813 216.35195148 -73.29296875 212.02734375 C-71.3125 210.1875 -71.3125 210.1875 -69.05078125 208.56640625 C-68.47714844 208.11136719 -67.90351562 207.65632812 -67.3125 207.1875 C-67.3125 206.5275 -67.3125 205.8675 -67.3125 205.1875 C-66.714375 204.92195312 -66.11625 204.65640625 -65.5 204.3828125 C-56.65075025 199.5473296 -50.17661883 187.20898696 -44.3125 179.1875 C-43.40951172 177.96353516 -43.40951172 177.96353516 -42.48828125 176.71484375 C-37.56133292 169.70912818 -33.96668641 161.90705817 -30.3125 154.1875 C-29.99603516 153.52266602 -29.67957031 152.85783203 -29.35351562 152.17285156 C-12.10323543 115.55669076 -10.40066928 74.96518755 -13.3125 35.1875 C-26.66513683 34.9279455 -39.92418558 35.33021201 -53.25 36.125 Z " fill="#FCFBFA" transform="translate(858.3125,450.8125)"/>
<path d="M0 0 C2.46318205 1.34547102 4.03400356 2.77158746 5.93505859 4.82641602 C8.01100685 7.01158595 10.17981427 8.98175386 12.4453125 10.96875 C18.17896663 16.09372482 23.62567614 21.47414089 29.05102539 26.9206543 C30.69239796 28.56741404 32.33908819 30.20872095 33.98632812 31.84960938 C39.03816854 36.89864522 43.99159543 41.98450909 48.63305664 47.41918945 C50.28248566 49.32668238 52.04634769 51.07731214 53.875 52.8125 C56.87428931 55.76591108 59.55635341 58.83967436 62.1875 62.125 C65.78103995 66.60606363 69.5642089 70.82330007 73.5 75 C78.94681203 80.79239203 84.03841245 86.78418214 89 93 C90.45667375 94.77219875 91.91503985 96.54300766 93.375 98.3125 C98.15249743 104.15441396 102.81689455 110.08056708 107.45947266 116.02978516 C109.08669948 118.1108819 110.72088808 120.18639425 112.35546875 122.26171875 C123.13255252 135.98143331 133.28910275 150.09867962 143.3125 164.375 C143.86292969 165.15858887 144.41335938 165.94217773 144.98046875 166.74951172 C146.08502029 168.33003777 147.17073155 169.92387121 148.23876953 171.52929688 C149.96321873 174.06363311 149.96321873 174.06363311 152.17919922 176.33007812 C161.02573445 186.74789577 158.86793157 199.85503971 158.5 212.75 C158.45981786 215.2004626 158.42332548 217.65098864 158.390625 220.1015625 C158.30302009 226.06910591 158.16962019 232.03425393 158 238 C154.8706406 236.4353203 154.06675816 233.29792413 152.625 230.25 C144.98384702 214.57551863 136.05588907 199.62248512 126.40185547 185.11230469 C124.94554853 182.91795295 123.50520104 180.71367989 122.06640625 178.5078125 C115.83126456 168.99390767 109.26647935 159.81007468 102.35351562 150.77832031 C100.39561532 148.20592748 98.48299798 145.6003823 96.5625 143 C91.40527832 136.12058452 85.95695616 129.48209377 80.50439453 122.83642578 C79.19454414 121.2374815 77.8915859 119.63289606 76.58984375 118.02734375 C66.23603885 105.26829923 55.43369113 92.86706184 44.40625 80.6875 C42.47965585 78.53571952 40.57798313 76.36741822 38.68359375 74.1875 C35.0625076 70.04244998 31.33372839 66.00838811 27.5625 62 C26.90507812 61.29939453 26.24765625 60.59878906 25.5703125 59.87695312 C21.72300202 55.78966189 17.81992727 51.77595237 13.81274414 47.84472656 C12.12218095 46.1243366 10.55944971 44.35454242 9 42.515625 C4.55118093 37.40301388 -0.18957756 32.58860464 -4.97021484 27.78955078 C-6.50435094 26.24562128 -8.02747375 24.69132374 -9.55078125 23.13671875 C-14.34573814 18.2915223 -18.76916784 13.90538803 -25 11 C-24.621318 8.35496358 -24.21636083 7.20714367 -22.2578125 5.33203125 C-21.20207031 4.57986328 -21.20207031 4.57986328 -20.125 3.8125 C-19.42632812 3.30332031 -18.72765625 2.79414063 -18.0078125 2.26953125 C-12.63295043 -1.12897103 -6.10798551 -0.86529795 0 0 Z " fill="#FBFBF8" transform="translate(398,378)"/>
<path d="M0 0 C-1.32 0.33 -2.64 0.66 -4 1 C-4 1.66 -4 2.32 -4 3 C-162.4 3 -320.8 3 -484 3 C-484 2.34 -484 1.68 -484 1 C-452.3527329 0.82873855 -420.70541069 0.6695394 -389.05804205 0.51822662 C-385.26670769 0.50007997 -381.47537388 0.48182283 -377.68404007 0.46356201 C-315.81465335 0.1666484 -253.94642364 -0.044795 -192.07629901 -0.03168321 C-190.01684829 -0.03125108 -187.95739757 -0.03087106 -185.89794683 -0.03050041 C-159.40493936 -0.02552716 -132.91194394 -0.01038565 -106.41895598 0.02321291 C-96.54420805 0.0356675 -86.66946007 0.04514794 -76.79470712 0.05261564 C-70.00665893 0.05806769 -63.21863954 0.06809694 -56.43060362 0.08198977 C-52.28716865 0.08945413 -48.14373789 0.09270837 -44.00029707 0.09484577 C-42.11672124 0.09667431 -40.23314604 0.10021408 -38.34957743 0.10573864 C-28.41611705 0.13403089 -18.55024287 -0.00826839 -8.63935941 -0.73712826 C-5.40304347 -0.95925146 -3.11307519 -1.03769173 0 0 Z " fill="#967662" transform="translate(824,893)"/>
<path d="M0 0 C0.66 0.99 1.32 1.98 2 3 C1.01 3.33 0.02 3.66 -1 4 C-2.18391223 6.37625345 -2.18391223 6.37625345 -3 9 C-4 12 -4 12 -5.5 13.390625 C-7.43444768 15.46612616 -7.58499617 16.96601595 -8 19.75 C-8.7789797 24.19855347 -10.12411721 27.87305787 -12 32 C-12.49329259 33.4745159 -12.97171188 34.9540661 -13.4375 36.4375 C-14.65404014 40.20877444 -16.24874255 43.5779326 -18.08984375 47.078125 C-18.99834331 48.99650176 -19.5870795 50.82497226 -20.125 52.875 C-21 56 -21 56 -23 58 C-25.125 57.625 -25.125 57.625 -27 57 C-27.33 54.36 -27.66 51.72 -28 49 C-25.64046906 51.35953094 -25.50858587 52.77895617 -25 56 C-22.77457854 55.15480254 -22.77457854 55.15480254 -22 52.69921875 C-20.22546533 47.35481943 -18.76815288 42.20224079 -17.9375 36.625 C-17.26734838 32.15347108 -16.2338297 28.97125279 -14 25 C-13.19875476 23.0038181 -12.40816948 21.00334263 -11.625 19 C-9.6325751 14.13631626 -7.54353298 10.83084646 -4 7 C-2.72147713 4.78412652 -2.72147713 4.78412652 -2 3 C-1.34 3 -0.68 3 0 3 C0 2.01 0 1.02 0 0 Z " fill="#7F7045" transform="translate(590,580)"/>
<path d="M0 0 C1.02075623 0.00007553 2.04151245 0.00015106 3.09320068 0.00022888 C4.18811829 0.00539017 5.28303589 0.01055145 6.41113281 0.01586914 C8.10064056 0.01799156 8.10064056 0.01799156 9.82427979 0.02015686 C13.42096617 0.0257534 17.01759025 0.03830529 20.61425781 0.05102539 C23.053059 0.05604084 25.49186116 0.06060367 27.93066406 0.06469727 C33.90854989 0.07572169 39.8863994 0.09245641 45.86425781 0.11352539 C45.86425781 0.44352539 45.86425781 0.77352539 45.86425781 1.11352539 C39.39062198 1.4020569 32.91681209 1.68641695 26.44287109 1.96801758 C24.24523877 2.06408541 22.0476464 2.16107217 19.85009766 2.2590332 C16.67262943 2.40051066 13.49502725 2.53856924 10.31738281 2.67602539 C8.86818451 2.74164673 8.86818451 2.74164673 7.38970947 2.80859375 C0.54451112 3.10015963 -6.28476731 3.16094089 -13.13574219 3.11352539 C-8.66398439 0.71794086 -5.0601463 -0.01252511 0 0 Z " fill="#865E47" transform="translate(834.1357421875,448.886474609375)"/>
<path d="M0 0 C6.96288569 10.44432854 9.51994223 24.01915164 12.75 36 C12.97292725 36.81331787 13.19585449 37.62663574 13.42553711 38.46459961 C14.46535817 42.39385663 15.29790875 45.89547944 15 50 C13.07160895 47.10741343 12.38521355 45.21557457 11.51953125 41.90625 C11.24560547 40.88418457 10.97167969 39.86211914 10.68945312 38.80908203 C10.40005859 37.71708496 10.11066406 36.62508789 9.8125 35.5 C7.3479327 26.37925387 4.57063654 17.5203384 1.04614258 8.75195312 C-1.09982496 3.29947489 -1.09982496 3.29947489 0 0 Z " fill="#846945" transform="translate(536,650)"/>
<path d="M0 0 C0.66 0.99 1.32 1.98 2 3 C-0.92531192 6.01209661 -3.86716714 9.0074879 -6.8125 12 C-7.64587891 12.85851562 -8.47925781 13.71703125 -9.33789062 14.6015625 C-10.54155273 15.81972656 -10.54155273 15.81972656 -11.76953125 17.0625 C-12.50792236 17.81660156 -13.24631348 18.57070313 -14.00708008 19.34765625 C-16 21 -16 21 -19 21 C-19.33 21.99 -19.66 22.98 -20 24 C-20.66 23.67 -21.32 23.34 -22 23 C-14.99792665 14.98470673 -7.57474917 7.46938171 0 0 Z " fill="#93715C" transform="translate(653,497)"/>
<path d="M0 0 C0.33 0 0.66 0 1 0 C1.02544148 7.11669142 1.04290527 14.23337102 1.05493164 21.35009766 C1.05994752 23.76904743 1.06676179 26.18799419 1.07543945 28.60693359 C1.08762545 32.09212998 1.09325589 35.57728613 1.09765625 39.0625 C1.10281754 40.13677246 1.10797882 41.21104492 1.11329651 42.31787109 C1.11371544 47.97781173 0.84963973 53.40237353 0 59 C0.99 59.33 1.98 59.66 3 60 C2.03114628 61.68496298 1.03013277 63.35178756 0 65 C-0.33 65 -0.66 65 -1 65 C-1.07658467 50.59676341 -0.83783806 36.21143028 -0.5 21.8125 C-0.4516269 19.68294715 -0.40344876 17.55338987 -0.35546875 15.42382812 C-0.2392176 10.28249836 -0.12036015 5.14123515 0 0 Z " fill="#F6FFF0" transform="translate(590,516)"/>
<path d="M0 0 C0.66 0.99 1.32 1.98 2 3 C1.01 3.33 0.02 3.66 -1 4 C-2.18391223 6.37625345 -2.18391223 6.37625345 -3 9 C-4 12 -4 12 -5.40625 13.2890625 C-7.65442813 15.70254785 -8.39580003 18.28182445 -9.5 21.375 C-11.00452556 25.57031165 -12.63377522 29.2257737 -15 33 C-15.69822617 34.65369357 -16.37498605 36.31727014 -17 38 C-18.38012056 35.23975889 -17.59705421 34.03040064 -16.6875 31.125 C-16.42324219 30.26132812 -16.15898438 29.39765625 -15.88671875 28.5078125 C-15.07360449 26.20816775 -14.11546746 24.16409043 -13 22 C-11.79860478 19.22126276 -10.60012083 16.44157409 -9.4140625 13.65625 C-7.93244824 10.87310719 -6.28440039 9.14453914 -4 7 C-2.76487921 4.86690808 -2.76487921 4.86690808 -2 3 C-1.34 3 -0.68 3 0 3 C0 2.01 0 1.02 0 0 Z " fill="#747E4B" transform="translate(590,580)"/>
<path d="M0 0 C0.66 0 1.32 0 2 0 C-0.43294402 8.66736307 -4.65782877 16.17171506 -9 24 C-9.763922 21.74778481 -10.13962238 20.44068132 -9.41088867 18.140625 C-9.0832251 17.51671875 -8.75556152 16.8928125 -8.41796875 16.25 C-8.06283203 15.5590625 -7.70769531 14.868125 -7.34179688 14.15625 C-6.77041992 13.08890625 -6.77041992 13.08890625 -6.1875 12 C-5.81818359 11.2884375 -5.44886719 10.576875 -5.06835938 9.84375 C-4.37679801 8.51277373 -3.68032217 7.18433072 -2.97729492 5.859375 C-1.95756652 3.91926721 -0.97429881 1.96325689 0 0 Z " fill="#8C6954" transform="translate(884,606)"/>
<path d="M0 0 C0.66 0.33 1.32 0.66 2 1 C0.67879172 3.93230193 -0.74638197 5.98664899 -3.0390625 8.234375 C-3.90917969 9.09482422 -3.90917969 9.09482422 -4.796875 9.97265625 C-5.40015625 10.55917969 -6.0034375 11.14570312 -6.625 11.75 C-7.23601563 12.35199219 -7.84703125 12.95398438 -8.4765625 13.57421875 C-9.97988624 15.05405305 -11.48934856 16.52764676 -13 18 C-13.66 17.67 -14.32 17.34 -15 17 C-13.65396518 12.96189555 -11.34663277 11.52704924 -8 9 C-7.34 9 -6.68 9 -6 9 C-5.7525 8.443125 -5.505 7.88625 -5.25 7.3125 C-3.78393985 4.60028873 -1.97010529 2.36412635 0 0 Z " fill="#8E6B56" transform="translate(834,682)"/>
<path d="M0 0 C0.66 0 1.32 0 2 0 C3.49421027 3.18065549 4.96755913 6.37056467 6.4375 9.5625 C7.06881836 10.90538086 7.06881836 10.90538086 7.71289062 12.27539062 C9.99150302 17.2518801 11.58721626 21.52873917 12 27 C10 26 10 26 8.88671875 23.15625 C8.29310547 21.34640625 8.29310547 21.34640625 7.6875 19.5 C5.91771092 14.2468803 3.8481147 9.48481227 0.91796875 4.76953125 C0 3 0 3 0 0 Z " fill="#E9F4E1" transform="translate(554,378)"/>
<path d="M0 0 C0 4.63192482 -2.8836058 6.77841106 -6 10 C-13.43704274 17.20908741 -13.43704274 17.20908741 -18 18 C-14.65348519 13.7122779 -11.07466717 10.20568225 -6.9375 6.6796875 C-4.49654333 4.56353555 -2.24804455 2.31829594 0 0 Z " fill="#F0E5DC" transform="translate(828,692)"/>
<path d="M0 0 C2.0625 0.4375 2.0625 0.4375 4 1 C1.2309788 4.10130375 -1.60644658 5.94699481 -5.25 7.91796875 C-7.93943113 9.58085362 -9.86966121 11.67599405 -12 14 C-12.66 13.34 -13.32 12.68 -14 12 C-13.07316406 11.21753906 -12.14632812 10.43507813 -11.19140625 9.62890625 C-9.98175093 8.60679439 -8.7721166 7.58465769 -7.5625 6.5625 C-6.64500977 5.7880957 -6.64500977 5.7880957 -5.70898438 4.99804688 C-2.78350052 2.5775409 -2.78350052 2.5775409 0 0 Z " fill="#94735E" transform="translate(791,680)"/>
<path d="M0 0 C0.33 0 0.66 0 1 0 C1.41860465 14.1627907 1.41860465 14.1627907 -2 21 C-2.66 21 -3.32 21 -4 21 C-2.87723429 13.94090922 -1.62436599 6.96156852 0 0 Z " fill="#8A6550" transform="translate(875,532)"/>
<path d="M0 0 C0.33 0 0.66 0 1 0 C2.8569232 15.72791574 2.8569232 15.72791574 -1 23 C-1.66 23.66 -2.32 24.32 -3 25 C-2.86722656 23.94941406 -2.73445312 22.89882813 -2.59765625 21.81640625 C-1.68232608 14.5491346 -0.78035119 7.28327778 0 0 Z " fill="#8F6D5B" transform="translate(879,504)"/>
<path d="M0 0 C0.66 0 1.32 0 2 0 C0.86418042 5.48979464 -0.46228467 10.90337711 -1.9375 16.3125 C-2.25589844 17.48425781 -2.57429687 18.65601563 -2.90234375 19.86328125 C-3.92751042 22.79285006 -4.98439764 24.67430497 -7 27 C-7.30706274 22.8034759 -6.72488636 20.05705687 -4.93359375 16.27734375 C-2.78953416 11.0472737 -1.48784431 5.44535912 0 0 Z " fill="#8F6F5C" transform="translate(900,563)"/>
<path d="M0 0 C1.50433594 0.01353516 1.50433594 0.01353516 3.0390625 0.02734375 C3.80992187 0.03894531 4.58078125 0.05054688 5.375 0.0625 C5.375 0.3925 5.375 0.7225 5.375 1.0625 C4.77171875 1.09988281 4.1684375 1.13726562 3.546875 1.17578125 C-1.0723289 1.55574802 -4.09434101 1.81429373 -7.625 5.0625 C-8.285 5.0625 -8.945 5.0625 -9.625 5.0625 C-9.893125 5.701875 -10.16125 6.34125 -10.4375 7 C-11.625 9.0625 -11.625 9.0625 -14.625 10.0625 C-13.27217831 5.63508356 -11.39201112 3.69940779 -7.625 1.0625 C-4.98041621 -0.25979189 -2.94738699 -0.03427194 0 0 Z " fill="#8D774F" transform="translate(367.625,387.9375)"/>
<path d="M0 0 C11.55 0 23.1 0 35 0 C35 0.33 35 0.66 35 1 C33.9275 1.144375 32.855 1.28875 31.75 1.4375 C29.08337051 1.83749442 26.58600271 2.27591924 24 3 C24 2.34 24 1.68 24 1 C16.08 1 8.16 1 0 1 C0 0.67 0 0.34 0 0 Z " fill="#855F47" transform="translate(653,863)"/>
<path d="M0 0 C0.66 0.33 1.32 0.66 2 1 C-1.71429658 5.17858365 -5.64185802 8.17846829 -11 10 C-11.66 9.67 -12.32 9.34 -13 9 C-8.71 6.03 -4.42 3.06 0 0 Z " fill="#9D7F6C" transform="translate(697,463)"/>
<path d="M0 0 C0 3 0 3 -1.4609375 4.82421875 C-2.09257813 5.43910156 -2.72421875 6.05398438 -3.375 6.6875 C-4.00148438 7.31011719 -4.62796875 7.93273437 -5.2734375 8.57421875 C-7 10 -7 10 -9 10 C-9.66 11.32 -10.32 12.64 -11 14 C-11.99 14 -12.98 14 -14 14 C-9.67106815 8.81580806 -5.23435005 4.27293882 0 0 Z " fill="#E9DDD2" transform="translate(677,521)"/>
<path d="M0 0 C-2.15344283 2.40243465 -3.96874765 3.60244944 -7 4.6875 C-7.680625 4.93886719 -8.36125 5.19023438 -9.0625 5.44921875 C-11 6 -11 6 -14 6 C-13.67 5.01 -13.34 4.02 -13 3 C-10.56640625 1.796875 -10.56640625 1.796875 -7.5625 0.75 C-6.57378906 0.39421875 -5.58507812 0.0384375 -4.56640625 -0.328125 C-2 -1 -2 -1 0 0 Z " fill="#9E7E6B" transform="translate(722,726)"/>
<path d="M0 0 C1.75570312 0.01353516 1.75570312 0.01353516 3.546875 0.02734375 C4.43890625 0.03894531 5.3309375 0.05054688 6.25 0.0625 C5.92 0.7225 5.59 1.3825 5.25 2.0625 C2.70058627 2.37491371 0.24638487 2.57553421 -2.3125 2.6875 C-3.37887695 2.74550781 -3.37887695 2.74550781 -4.46679688 2.8046875 C-6.22742425 2.89921783 -7.98867728 2.98195817 -9.75 3.0625 C-10.08 2.4025 -10.41 1.7425 -10.75 1.0625 C-7.14006828 -0.07230527 -3.7657673 -0.03765767 0 0 Z " fill="#835B43" transform="translate(826.75,419.9375)"/>
<path d="M0 0 C3 1 3 1 4.16796875 2.99609375 C4.50441406 3.80175781 4.84085938 4.60742188 5.1875 5.4375 C5.53167969 6.24058594 5.87585938 7.04367187 6.23046875 7.87109375 C7 10 7 10 7 12 C5.109375 11.3203125 5.109375 11.3203125 3 10 C1.953125 7.6171875 1.953125 7.6171875 1.25 4.875 C0.88648438 3.50988281 0.88648438 3.50988281 0.515625 2.1171875 C0.34546875 1.41851563 0.1753125 0.71984375 0 0 Z " fill="#767646" transform="translate(555,617)"/>
<path d="M0 0 C-4.62 2.97 -9.24 5.94 -14 9 C-14.66 8.01 -15.32 7.02 -16 6 C-3.59124088 -1.19708029 -3.59124088 -1.19708029 0 0 Z " fill="#8E6A55" transform="translate(724,487)"/>
<path d="M0 0 C-2.91301615 1.94201077 -4.40545177 2.44448565 -7.75 3.0625 C-8.62914062 3.22621094 -9.50828125 3.38992188 -10.4140625 3.55859375 C-13.6037829 4.10306264 -16.79136172 4.58148196 -20 5 C-16.85418354 2.90278902 -14.1591082 1.94332914 -10.5625 0.8125 C-9.42941406 0.44769531 -8.29632812 0.08289063 -7.12890625 -0.29296875 C-4.1660003 -0.96248932 -2.77995035 -1.07236414 0 0 Z " fill="#9E806E" transform="translate(783,428)"/>
<path d="M0 0 C0.99 0 1.98 0 3 0 C3 3.3 3 6.6 3 10 C1.68 9.67 0.36 9.34 -1 9 C-0.67 6.03 -0.34 3.06 0 0 Z " fill="#855A40" transform="translate(908,506)"/>
<path d="M0 0 C-2.12282669 1.00460531 -4.24833021 2.00355602 -6.375 3 C-8.15003906 3.8353125 -8.15003906 3.8353125 -9.9609375 4.6875 C-13 6 -13 6 -15 6 C-15 5.34 -15 4.68 -15 4 C-13.75264433 3.3490741 -12.50198168 2.70448331 -11.25 2.0625 C-10.55390625 1.70285156 -9.8578125 1.34320312 -9.140625 0.97265625 C-5.54800064 -0.65975883 -3.82436978 -1.27478993 0 0 Z " fill="#8A644E" transform="translate(751,749)"/>
<path d="M0 0 C6.02536998 -0.602537 6.02536998 -0.602537 8.80078125 1.11328125 C10.25599455 2.34621853 11.63479157 3.66808933 13 5 C12.01 5.33 11.02 5.66 10 6 C9.649375 5.505 9.29875 5.01 8.9375 4.5 C6.05625711 2.26936034 3.52990974 2.80019379 0 3 C0 2.01 0 1.02 0 0 Z " fill="#8B6A55" transform="translate(897,420)"/>
<path d="M0 0 C0.66 0 1.32 0 2 0 C0.72278474 4.99275057 -1.17330957 7.57611908 -5 11 C-4.46968862 6.4923533 -2.74778884 3.58045212 0 0 Z " fill="#8A6550" transform="translate(872,630)"/>
<path d="M0 0 C0.33 0 0.66 0 1 0 C1 4.29 1 8.58 1 13 C1.99 13.33 2.98 13.66 4 14 C3.03114628 15.68496298 2.03013277 17.35178756 1 19 C0.67 19 0.34 19 0 19 C0 12.73 0 6.46 0 0 Z " fill="#E8F0D7" transform="translate(589,562)"/>
<path d="M0 0 C0.66 0.99 1.32 1.98 2 3 C0.02 4.98 -1.96 6.96 -4 9 C-4.99 8.67 -5.98 8.34 -7 8 C-4.69 5.36 -2.38 2.72 0 0 Z " fill="#967460" transform="translate(630,521)"/>
<path d="M0 0 C0 4.1041911 -1.45843064 5.84021107 -4 9 C-6.75 9.875 -6.75 9.875 -9 10 C-8.06409496 8.8944811 -7.12620142 7.79064547 -6.1875 6.6875 C-5.66542969 6.07261719 -5.14335938 5.45773437 -4.60546875 4.82421875 C-3.12827531 3.14575321 -1.59960869 1.56117966 0 0 Z " fill="#95735E" transform="translate(814,658)"/>
<path d="M0 0 C5.7809725 0.63065155 11.3443706 1.65155132 17 3 C17 3.33 17 3.66 17 4 C14.72844502 3.91297874 12.45769257 3.80480478 10.1875 3.6875 C8.92292969 3.62949219 7.65835938 3.57148437 6.35546875 3.51171875 C3 3 3 3 1.05078125 1.45703125 C0.70402344 0.97621094 0.35726563 0.49539063 0 0 Z " fill="#CEE1C6" transform="translate(506,767)"/>
<path d="M0 0 C0.66 0.33 1.32 0.66 2 1 C-3.0940919 7.86214442 -3.0940919 7.86214442 -6.875 8.4375 C-7.57625 8.293125 -8.2775 8.14875 -9 8 C-6.14723863 5.06799526 -3.34920216 2.35684596 0 0 Z " fill="#9C7C68" transform="translate(775,693)"/>
<path d="M0 0 C2.55803184 3.83704776 4.34505724 7.75712791 3.625 12.4375 C3.41875 12.953125 3.2125 13.46875 3 14 C2.34 13.67 1.68 13.34 1 13 C0.5859375 10.05859375 0.5859375 10.05859375 0.375 6.4375 C0.30023437 5.23996094 0.22546875 4.04242187 0.1484375 2.80859375 C0.09945312 1.88175781 0.05046875 0.95492187 0 0 Z " fill="#B4B686" transform="translate(543,675)"/>
<path d="M0 0 C0.71484375 1.734375 0.71484375 1.734375 1 4 C-0.43359375 6.140625 -0.43359375 6.140625 -2.4375 8.25 C-3.09621094 8.95640625 -3.75492188 9.6628125 -4.43359375 10.390625 C-4.95050781 10.92171875 -5.46742188 11.4528125 -6 12 C-6.33 11.01 -6.66 10.02 -7 9 C-6.34 9 -5.68 9 -5 9 C-4.896875 8.360625 -4.79375 7.72125 -4.6875 7.0625 C-4.460625 6.381875 -4.23375 5.70125 -4 5 C-3.01 4.67 -2.02 4.34 -1 4 C-0.26676204 1.98491642 -0.26676204 1.98491642 0 0 Z " fill="#8D6B55" transform="translate(648,548)"/>
<path d="M0 0 C0.66 0.99 1.32 1.98 2 3 C1.01 3.33 0.02 3.66 -1 4 C-1.73323796 6.01508358 -1.73323796 6.01508358 -2 8 C-3.32 8.33 -4.64 8.66 -6 9 C-4.02 6.03 -2.04 3.06 0 0 Z " fill="#96745E" transform="translate(834,632)"/>
<path d="M0 0 C0.33 0.66 0.66 1.32 1 2 C-3 8.57142857 -3 8.57142857 -7 10 C-5.33248852 6.05860922 -2.77289351 3.2107188 0 0 Z " fill="#997A67" transform="translate(622,531)"/>
<path d="M0 0 C0.66 0.33 1.32 0.66 2 1 C0.95285076 2.32477959 -0.11344669 3.63443746 -1.1875 4.9375 C-1.77917969 5.66839844 -2.37085938 6.39929688 -2.98046875 7.15234375 C-5.32505203 9.29738803 -6.88391498 9.66094412 -10 10 C-6.66666667 6.66666667 -3.33333333 3.33333333 0 0 Z " fill="#9B7E6C" transform="translate(664,487)"/>
<path d="M0 0 C-1.875 4.75 -1.875 4.75 -3 7 C-3.22467831 8.53668865 -3.40796805 10.07968054 -3.5625 11.625 C-3.64628906 12.44226563 -3.73007812 13.25953125 -3.81640625 14.1015625 C-3.87699219 14.72804688 -3.93757813 15.35453125 -4 16 C-4.33 16 -4.66 16 -5 16 C-5.08133791 14.08404032 -5.13934367 12.16708068 -5.1875 10.25 C-5.22230469 9.18265625 -5.25710938 8.1153125 -5.29296875 7.015625 C-4.94860213 3.47094463 -4.06391445 0 0 0 Z " fill="#AFB381" transform="translate(356,391)"/>
<path d="M0 0 C4.7517398 0.43197635 6.92000054 1.32769295 10 5 C9.01 5 8.02 5 7 5 C7 4.34 7 3.68 7 3 C4.69 3 2.38 3 0 3 C0 2.01 0 1.02 0 0 Z " fill="#8B6954" transform="translate(818,863)"/>
<path d="M0 0 C0.66 0 1.32 0 2 0 C0.68938409 4.23429756 -0.94356259 8.07407404 -3 12 C-3.33 12 -3.66 12 -4 12 C-3.67 9.69 -3.34 7.38 -3 5 C-2.34 5 -1.68 5 -1 5 C-0.67 3.35 -0.34 1.7 0 0 Z " fill="#8D6C57" transform="translate(618,593)"/>
<path d="M0 0 C0.66 0 1.32 0 2 0 C0.74194623 4.50802601 -0.90407165 7.4912812 -4 11 C-3.25531915 3.25531915 -3.25531915 3.25531915 0 0 Z " fill="#8D6A54" transform="translate(624,582)"/>
<path d="M0 0 C3.26008643 3.16952847 6.22237877 6.39937989 9 10 C8.01 10.495 8.01 10.495 7 11 C7 10.34 7 9.68 7 9 C6.401875 8.773125 5.80375 8.54625 5.1875 8.3125 C2.40651597 6.64390958 1.4358084 4.8716168 0 2 C0 1.34 0 0.68 0 0 Z " fill="#B5B787" transform="translate(434,499)"/>
<path d="M0 0 C1.45880109 0.14107747 2.91703551 0.28802415 4.375 0.4375 C5.59316406 0.55931641 5.59316406 0.55931641 6.8359375 0.68359375 C9 1 9 1 11 2 C11 2.66 11 3.32 11 4 C11.99 4.33 12.98 4.66 14 5 C8.72250715 4.46148032 4.74354436 3.22656164 0 1 C0 0.67 0 0.34 0 0 Z " fill="#C8D9BF" transform="translate(343,200)"/>
<path d="M0 0 C0.66 0.33 1.32 0.66 2 1 C0.02 3.31 -1.96 5.62 -4 8 C-4.99 7.34 -5.98 6.68 -7 6 C-4.69 4.02 -2.38 2.04 0 0 Z " fill="#9D7D6A" transform="translate(784,686)"/>
<path d="M0 0 C0.66 0 1.32 0 2 0 C1.55123384 1.64846769 1.09069512 3.29373455 0.625 4.9375 C0.36976563 5.85402344 0.11453125 6.77054688 -0.1484375 7.71484375 C-1 10 -1 10 -3 11 C-2.25 3.375 -2.25 3.375 0 0 Z " fill="#8F6E59" transform="translate(612,605)"/>
<path d="M0 0 C-4.95 2.475 -4.95 2.475 -10 5 C-10 4.01 -10 3.02 -10 2 C-3.375 -1.125 -3.375 -1.125 0 0 Z " fill="#8C664E" transform="translate(750,473)"/>
<path d="M0 0 C2.51699845 2.51699845 3.10964078 4.57554146 4 8 C3.55078125 10.1953125 3.55078125 10.1953125 3 12 C2.30062798 10.5682384 1.61587282 9.12932968 0.9375 7.6875 C0.55464844 6.88699219 0.17179688 6.08648437 -0.22265625 5.26171875 C-1 3 -1 3 0 0 Z " fill="#DCEBD3" transform="translate(567,406)"/>
<path d="M0 0 C2.25 0.25 2.25 0.25 4 1 C2.72403685 3.55192629 1.62843884 3.99500868 -1 5 C-1.99 4.67 -2.98 4.34 -4 4 C-2.25 1.9375 -2.25 1.9375 0 0 Z " fill="#987661" transform="translate(746,712)"/>
<path d="M0 0 C3.08089673 2.77280706 4.68775452 5.06326356 6 9 C5.01 8.67 4.02 8.34 3 8 C3 7.01 3 6.02 3 5 C2.01 5 1.02 5 0 5 C0 3.35 0 1.7 0 0 Z " fill="#B8BC8B" transform="translate(488,569)"/>
<path d="M0 0 C-1 3 -1 3 -3.3125 4.25 C-6.16597407 5.04631835 -7.24802325 4.8214856 -10 4 C-8.71086513 3.32845067 -7.41859796 2.66291141 -6.125 2 C-5.40570312 1.62875 -4.68640625 1.2575 -3.9453125 0.875 C-2 0 -2 0 0 0 Z " fill="#A58977" transform="translate(739,717)"/>
<path d="M0 0 C0.66 0 1.32 0 2 0 C0.73058503 3.91402949 -0.51167694 5.79072873 -4 8 C-3.67 6.35 -3.34 4.7 -3 3 C-2.01 2.67 -1.02 2.34 0 2 C0 1.34 0 0.68 0 0 Z " fill="#8E6A55" transform="translate(847,667)"/>
<path d="M0 0 C0.33 0.99 0.66 1.98 1 3 C-0.98 4.98 -2.96 6.96 -5 9 C-5.66 8.67 -6.32 8.34 -7 8 C-4.69 5.36 -2.38 2.72 0 0 Z " fill="#ECDFD5" transform="translate(652,547)"/>
<path d="M0 0 C0.33 0.99 0.66 1.98 1 3 C-0.9375 6.1875 -0.9375 6.1875 -3 9 C-3.75 7.3125 -3.75 7.3125 -4 5 C-2.0625 2.25 -2.0625 2.25 0 0 Z " fill="#906B58" transform="translate(630,573)"/>
<path d="M0 0 C1.31611677 0.95336021 2.62778961 1.91285774 3.9375 2.875 C4.66839844 3.40867187 5.39929688 3.94234375 6.15234375 4.4921875 C8 6 8 6 9 8 C7.68 7.67 6.36 7.34 5 7 C5 6.34 5 5.68 5 5 C4.360625 4.731875 3.72125 4.46375 3.0625 4.1875 C1 3 1 3 0 0 Z " fill="#B8BB8B" transform="translate(358,419)"/>
<path d="M0 0 C0.66 0 1.32 0 2 0 C5.125 6.625 5.125 6.625 4 10 C0 3.375 0 3.375 0 0 Z " fill="#E0EED8" transform="translate(554,378)"/>
<path d="M0 0 C0.6875 1.6875 0.6875 1.6875 1 4 C-0.3125 6.75 -0.3125 6.75 -2 9 C-2.66 9 -3.32 9 -4 9 C-2.94124926 5.59687262 -1.99097846 2.98646769 0 0 Z " fill="#EEE3D9" transform="translate(876,627)"/>
<path d="M0 0 C0.66 0 1.32 0 2 0 C1.01 2.97 0.02 5.94 -1 9 C-1.33 9 -1.66 9 -2 9 C-2.20140476 5.37471432 -1.85776765 3.13498292 0 0 Z " fill="#947662" transform="translate(884,606)"/>
<path d="M0 0 C1.32 0.33 2.64 0.66 4 1 C1.69 2.65 -0.62 4.3 -3 6 C-2 2 -2 2 0 0 Z " fill="#906F5A" transform="translate(687,509)"/>
</svg>
